<svg width="375" height="190" viewBox="0 0 375 190" fill="none" xmlns="http://www.w3.org/2000/svg">
<path fill-rule="evenodd" clip-rule="evenodd" d="M105.988 23.6946C109.327 24.8139 112.34 26.4585 115.282 28.3735C116.716 29.3067 118.151 30.3987 119.736 31.0595C121.143 31.6456 122.679 31.9123 124.124 32.394C130.598 34.5521 137.622 34.9861 144.206 32.9114C150.916 30.7964 156.612 26.2543 163.552 24.8297C170.321 23.4402 177.204 23.7475 183.703 26.2636C186.86 27.4857 189.522 29.5393 192.216 31.5391C194.798 33.4556 197.507 35.3458 199.505 37.9041C201.468 40.4165 202.601 43.543 203.465 46.5832C203.964 48.3366 204.194 50.1471 204.158 51.9709C204.134 53.2468 203.46 54.4793 203.856 55.7127C204.412 57.4424 205.222 58.7139 205.013 60.6396C204.844 62.1904 204.14 63.5269 203.04 64.6155C201.911 65.7323 200.56 66.4993 199.055 66.9837C197.916 67.3502 197.556 67.2575 196.895 66.2638C195.042 67.9431 193.719 70.0651 191.398 71.1743C190.246 71.7252 189.066 71.9905 187.796 72.0714C186.835 72.1325 185.953 72.1604 185.14 72.746C184.288 73.3608 181.171 76.1034 182.363 77.1821C183.059 77.8114 184.681 77.9361 185.566 78.2978C186.804 78.8037 187.994 79.4241 189.118 80.1506C193.228 82.808 197.318 84.4659 202.071 85.6554C207.005 86.8902 211.979 87.5583 217.07 87.5766C221.693 87.5935 226.538 87.2417 230.826 85.3672C232.884 84.4676 234.87 83.2745 236.554 81.7805C238.234 80.29 239.265 78.2172 240.991 76.8301C242.109 75.9321 241.075 74.5497 240.73 73.3172C240.028 70.8098 239.491 67.9555 239.277 65.3628C239.07 62.8441 238.724 60.3328 238.277 57.8407C237.804 55.1987 236.817 52.7395 236.12 50.1592C235.606 48.2566 235.089 46.0236 235.685 44.0807C235.981 43.1168 236.636 42.0983 237.568 41.6384C238.401 41.2269 238.915 41.6201 239.661 41.5759C241.852 41.4469 243.543 42.3411 245.196 43.8044C246.089 44.595 247.123 45.2873 247.974 46.1154C248.636 46.7593 248.792 47.7983 249.498 48.3693C250.656 45.4098 251.869 41.6477 255.797 43.3402C258.905 44.6795 259.304 49.7117 260.812 52.3351C261.659 51.6365 261.754 50.2601 262.084 49.2864C262.425 48.2786 263 47.2142 263.81 46.5013C265.58 44.9443 267.739 45.5695 268.957 47.4347C269.608 48.4318 269.221 49.5765 269.867 50.5612C270.508 51.5377 270.308 52.6787 270.57 53.816C270.902 55.2576 271.303 56.678 271.571 58.1359C271.694 58.8099 271.874 59.5698 271.843 60.2616C271.83 60.5483 271.598 61.0415 271.669 61.3246C271.762 61.695 272.202 62.0282 272.363 62.3946C272.58 62.887 272.499 63.2449 272.524 63.7528C272.568 64.6671 272.812 65.4171 273.075 66.3201C273.735 68.5945 273.568 71.4734 272.59 73.6273C272.082 74.7438 271.727 75.5558 271.576 76.7506C271.479 77.5221 270.898 78.2248 270.933 79.0541C270.982 80.208 274.065 81.9876 271.631 82.7531C270.614 83.0728 270.397 82.9058 270.119 84.0685C269.843 85.2227 269.531 86.3457 269.079 87.4453C268.12 89.7789 266.703 91.8682 265.365 93.9934C263.917 96.2937 262.396 98.5166 260.257 100.232C258.273 101.822 255.999 103.116 253.734 104.261C248.963 106.674 243.654 108.02 238.297 107.89C232.584 107.75 226.79 108.291 221.129 107.319C215.333 106.325 209.677 104.678 203.905 103.574C201.312 103.077 198.895 102.536 196.536 101.311C194.142 100.068 191.753 98.7991 189.563 97.2145C188.054 100.835 187.242 104.609 185.079 107.94C183.191 110.847 180.914 113.581 178.126 115.665C175.404 117.702 171.846 119.225 168.418 119.356C167.372 119.396 165.763 118.936 165.013 119.725C164.637 120.12 164.599 120.905 164.45 121.412C164.196 122.275 163.828 123.117 163.625 123.994C163.315 125.323 164.562 125.344 165.654 125.883C167.119 126.607 168.55 127.398 169.966 128.212C171.413 129.045 172.793 130.002 174.242 130.821C175.487 131.525 176.771 132.067 177.97 132.864C180.801 134.748 183.903 136.004 186.943 137.495C190.198 139.091 193.363 140.872 196.562 142.577C202.897 145.955 209.252 149.461 215.233 153.442C218.025 155.301 220.709 157.236 223.572 158.993C226.243 160.633 229.292 162.552 230.992 165.242C232.317 167.34 234.222 168.333 236.414 169.477C237.706 170.15 238.506 170.278 239.555 169.175C240.585 168.093 241.58 167.017 242.666 165.984C247.121 161.751 250.932 157.118 254.648 152.244C257.406 148.625 261.187 144.28 266.253 145.073C267.771 145.311 268.78 146.018 269.903 147.014C270.665 147.69 272.042 148.132 272.55 149.006C272.843 149.512 272.966 150.159 273.262 150.689C273.571 151.244 273.955 151.784 274.162 152.39C274.511 153.416 273.758 155.046 274.509 155.881C275.06 156.493 274.548 157.934 274.398 158.625C274.12 159.904 273.885 161.201 273.446 162.436C273.1 163.408 272.761 164.74 272.033 165.498C271.383 166.175 270.621 166.109 270.791 167.281C270.088 167.046 269.484 168.731 269.286 169.157C268.753 170.298 268.171 171.236 267.313 172.183C265.144 174.575 262.661 176.194 259.848 177.714C258.822 178.269 256.694 179.041 256.455 180.323C256.226 181.554 256.928 182.554 256.435 183.869C255.409 186.606 253.103 189.491 251.22 191.698C249.527 193.684 247.885 195.011 245.17 194.545C242.765 194.132 240.385 192.903 238.383 191.54C235.973 189.898 233.418 188.664 230.815 187.361C229.534 186.72 228.251 186.127 227.141 185.206C226.109 184.35 225.213 183.385 224.017 182.749C223.165 182.296 222.051 181.975 221.696 180.967C221.309 179.867 222.016 179.181 222.618 178.392C223.022 177.863 223.246 177.781 222.897 177.356C222.618 177.017 221.853 176.729 221.469 176.523C220.54 176.023 219.61 175.586 218.617 176.135C217.508 176.748 216.75 178.014 215.92 178.934C214.924 180.036 213.806 181.04 212.715 182.045C210.55 184.039 208.177 185.826 206.063 187.866C205.579 188.333 204.626 189.516 203.828 189.292C203.239 189.127 203.549 188.776 203.245 188.506C202.918 188.216 202.641 188.213 202.222 187.899C201.181 187.118 200.863 185.621 199.771 184.813C198.649 183.982 197.263 183.385 196.048 182.702C190.502 179.581 185.099 176.215 180.029 172.357C177.487 170.423 175.086 168.324 172.623 166.292C171.464 165.336 170.289 164.288 169 163.511C167.824 162.802 166.518 162.307 165.32 161.627C162.754 160.171 160.009 159.056 157.469 157.552C156.275 156.845 155.389 155.896 154.279 155.108C153.306 154.419 152.496 154.01 151.772 153.007C151.428 153.765 150.485 152.776 150.144 152.544C149.876 152.36 149.532 152.231 149.283 152.022C149.033 151.811 148.881 151.342 148.691 151.196C148.271 150.871 147.782 150.945 147.217 150.742C146.461 150.471 145.465 149.748 144.885 149.196C144.483 148.814 145.138 149.115 144.459 148.646C144.143 148.428 143.601 148.37 143.246 148.139C142.404 147.591 141.63 146.888 140.825 146.284C139.367 145.189 137.482 144.193 136.654 142.487C132.209 146.142 127.916 150.108 122.811 152.844C117.881 155.486 112.178 156.685 106.914 158.508C101.497 160.383 96.026 162.268 90.5184 163.858C87.8407 164.631 85.0796 165.186 82.3429 165.708C79.5356 166.244 76.7672 166.084 73.9503 166.387C72.5655 166.535 71.179 166.487 69.7948 166.622C68.52 166.745 67.2837 167.069 66.0179 167.238C64.902 167.387 63.6435 167.261 62.5704 167.565C61.7831 167.788 60.7431 168.578 60.1665 167.55C59.744 168.183 59.6098 167.884 59.0596 167.844C58.4728 167.801 58.2962 167.826 57.7218 167.936C56.7876 168.115 55.7567 168.184 54.9637 167.449C54.6009 168.766 51.085 167.568 50.6656 166.698C50.1933 168.092 45.9225 166.889 45.8606 165.581C45.8085 164.473 46.543 162.881 46.8462 161.84C47.341 160.142 47.9542 158.481 48.595 156.834C49.2729 155.092 49.968 153.355 50.6653 151.621C50.9716 150.858 51.2611 150.084 51.6107 149.34C51.7823 148.976 52.2287 148.432 52.2214 148.01C52.1998 146.779 49.9964 146.692 49.0648 146.385C48.3601 146.152 47.6448 145.907 46.9756 145.585C46.4898 145.352 45.907 144.815 45.3694 144.74C44.1377 144.57 44.4167 145.966 44.2828 146.823C44.111 147.927 43.5036 148.494 42.3363 148.503C40.9726 148.512 37.0837 146.164 36.3501 147.954C36.0061 148.792 36.0995 150.4 35.9735 151.301C35.7664 152.778 35.8486 154.247 36.0506 155.72C36.3822 158.145 37.4767 161.213 36.2446 163.537C33.7848 168.18 25.2549 165.382 22.5323 162.46C18.5227 158.156 18.6398 151.707 20.561 146.497C21.4951 143.962 22.8484 141.247 24.6175 139.186C25.4034 138.27 26.8985 137.387 27.1578 136.129C27.3733 135.085 26.5632 134.123 26.7336 133.054C26.9362 131.785 28.0087 131.015 28.928 130.245C29.8849 129.443 30.816 128.57 31.9066 127.949C34.43 126.514 37.2919 127.38 39.8007 128.434C42.5442 129.587 45.1723 131.133 47.6229 132.816C48.8361 133.649 49.8648 134.399 51.3033 134.802C52.4062 135.111 53.5204 135.415 54.6284 135.705C55.674 135.978 56.5553 136.182 57.2892 135.277C58.0967 134.281 58.3643 133.879 59.762 133.836C61.2506 133.791 62.7403 133.874 64.2275 133.93C64.5417 133.943 65.255 133.845 65.5029 134.107C65.7237 134.34 65.4038 134.828 65.6095 134.976C65.9341 135.209 67.7782 132.6 67.936 134.712C68.0367 133.687 69.111 134.183 69.7098 134.318C69.9278 134.367 70.1453 134.425 70.361 134.473C70.5951 134.395 70.7897 134.455 70.9436 134.653C71.1897 134.705 71.3562 134.611 71.4432 134.371C74.0457 134.333 76.671 134.497 79.2799 134.484C82.2971 134.468 85.3313 134.438 88.3201 134.001C89.4272 133.838 90.535 133.615 91.6441 133.479C92.1524 133.417 92.5788 133.471 93.0747 133.504C93.2556 133.538 93.4196 133.613 93.567 133.729C93.6427 133.58 93.7555 133.467 93.9051 133.39C95.8033 132.833 97.756 132.456 99.6848 131.97C101.035 131.63 102.167 131.367 103.511 131.272L103.766 131.256L104.306 131.415C104.385 131.222 104.513 131.072 104.691 130.964C105.13 130.784 105.502 130.714 105.974 130.666C107.854 130.474 109.698 130.494 111.475 130.219C112.411 130.074 115.831 129.543 116.461 130.472C116.945 129.341 120.427 130.881 121.446 130.213C119.864 128.052 119.175 125.739 118.727 123.127C118.239 120.28 117.932 117.286 118.654 114.45C119.319 111.838 120.768 109.157 122.748 107.319C124.663 105.541 125.112 103.415 126.39 101.221C129.052 96.6506 133.439 93.8582 138.325 92.1719C140.986 91.2537 143.691 90.4895 146.375 89.6457C148.555 88.9604 150.38 87.9796 151.483 85.8832C142.201 85.8832 133.318 88.766 124.819 92.2629C120.591 94.0021 116.381 95.8121 112.205 97.6736C110.08 98.6208 107.978 99.6339 105.994 100.857L105.446 101.195C104.807 101.591 104.172 101.996 103.576 102.453C103.434 102.562 102.659 103.015 102.613 103.166C102.259 104.342 104.211 106.234 104.718 107.243C105.408 108.617 106.084 110.223 106.169 111.772C106.27 113.625 105.09 114.552 103.272 114.171C101.049 113.706 99.3655 111.851 97.6001 110.561C97.2063 111.745 97.7149 113.107 97.9906 114.26C98.3686 115.843 98.7444 117.449 99.0134 119.055C99.3934 121.324 99.1233 123.885 96.8685 125.074C91.1226 128.104 88.1932 120.11 87.0264 116.116C86.2377 116.686 86.3297 118.773 86.1845 119.645C85.9058 121.324 85.5859 123.127 84.8413 124.669C84.2709 125.849 83.3016 127.228 81.8748 127.355C80.3275 127.493 79.0802 126.161 78.3871 124.932C77.1894 122.808 76.907 120.44 76.8124 118.059C76.7913 117.535 76.9432 112.679 76.4139 112.541C74.8572 115.333 73.9888 118.439 72.1602 121.102C70.5577 123.436 68.1462 125.019 65.9794 122.32C62.6238 118.141 63.6975 112.101 65.0722 107.399C65.8716 104.665 66.9597 102.055 68.4266 99.6097C69.0348 98.5955 69.7709 97.8344 70.5262 96.9404C71.1489 96.203 71.3886 95.8569 71.12 95.0071C70.9636 94.5116 70.8156 94.4936 70.9551 93.9458C71.0555 93.5529 71.3565 93.0693 71.5284 92.7042C72.0201 91.6612 72.5363 90.632 73.1385 89.6479C74.426 87.5457 76.179 85.7969 78.0213 84.1752L78.2064 84.0128L78.1975 84.021C78.0788 84.1304 78.9408 83.4729 78.923 83.4714L78.9183 83.4731L78.941 83.4596C79.2589 83.2515 79.3799 82.5674 79.7417 83.1779L79.768 83.2238C79.8245 82.3253 80.5801 81.8146 81.2281 81.3113C81.4695 81.1237 81.7109 80.8632 82.004 80.7511C82.2079 80.673 82.6821 80.7497 82.8298 80.6407C83.117 80.4291 83.2574 80.01 83.5302 79.7607C83.8037 79.5115 84.1812 79.3949 84.4923 79.2047C85.2548 78.7386 85.9555 78.1679 86.6996 77.6711C88.2798 76.6154 89.9299 75.6643 91.6205 74.7976C95.1771 72.9738 98.952 71.5064 102.73 70.2121C106.059 69.0714 109.51 68.0146 112.93 67.1837C116.44 66.3305 120.128 66.5429 123.713 66.1922C131.019 65.4771 138.732 65.6213 146.035 66.335C149.614 66.6849 153.173 67.2319 156.702 67.9157C160.126 68.5788 163.687 69.3333 166.728 71.1258C167.376 71.5078 168.547 72.7327 169.307 72.6877C169.946 72.6499 170.501 71.4683 170.802 71.0028C171.516 69.8969 172.413 68.8807 173.02 67.7155C173.767 66.2804 174.15 64.6673 174.712 63.1573C172.106 63.517 169.369 63.7502 166.868 62.7506C164.604 61.8454 163.077 60.0363 161.386 58.3657C159.604 56.6062 157.695 55.4139 155.146 55.2522C152.254 55.0686 149.647 56.1076 146.987 57.076C141.367 59.122 135.749 61.3699 129.965 62.9131C127.139 63.6674 124.233 64.2629 121.304 64.3969C119.813 64.4648 118.304 64.3978 116.829 64.6735C116.217 64.7876 116.034 64.8831 115.55 64.6127C115.616 64.6496 114.935 63.5156 114.8 63.957C114.67 64.3823 114.883 64.7147 114.511 65.0352C114.073 65.4115 113.125 65.2284 112.619 65.185C111.86 65.1203 111.256 64.8625 110.525 64.691C109.397 64.426 108.132 64.6006 106.981 64.4558C106.447 64.3885 106.059 64.2536 105.578 64.1054C105.075 63.9502 105.399 63.9699 104.88 63.9037C104.421 63.8452 104.16 63.9057 103.604 63.7246C103.106 63.5627 102.647 63.4511 102.138 63.3323C101.672 63.2238 101.295 63.0286 100.862 62.9016C101.407 63.0613 100.162 62.5675 100.216 62.6989L100.221 62.7073L100.217 62.7028C100.082 62.5505 99.9254 62.2442 99.6579 62.1966L99.6029 62.1907C100.483 63.5432 96.6148 62.1141 96.3585 62.036C94.221 61.3848 92.0314 59.9067 89.7977 59.7706C87.6171 59.6377 85.5021 61.1257 83.7466 62.2293C81.6265 63.5621 79.5159 64.9059 77.404 66.2522C72.7357 69.228 67.6806 71.8897 62.4416 73.6983C59.8933 74.5779 57.2821 75.2834 54.6973 76.0453C53.532 76.3887 52.2594 76.5298 51.1458 77.0224C50.393 77.3554 49.3081 78.3516 48.5475 77.4691C48.2411 78.2412 46.7537 78.2017 46.123 78.2257C46.026 78.2293 46.1818 78.4144 45.9599 78.3989C45.633 78.3758 45.5455 78.0581 45.2882 77.9916C44.7652 77.857 44.7109 78.0587 44.1928 78.2589C43.5197 78.5189 43.6479 78.2938 43.0527 78.2324C42.7121 78.1972 42.3512 78.3845 42.01 78.3952C41.8713 78.3997 41.6893 78.1685 41.4888 78.1719C41.2958 78.1755 40.8435 78.4062 40.5881 78.4445C39.9484 78.5409 39.1957 78.4769 38.5507 78.4482C37.6278 78.4068 28.384 77.5815 29.0472 75.6465C27.935 76.674 25.355 74.9945 24.1955 74.461C23.7638 74.2624 23.7359 74.0695 23.4926 73.8456C23.5598 73.5766 23.4448 73.4566 23.1474 73.4853C23.0839 73.478 23.02 73.471 22.9567 73.4636C22.4473 73.2037 22.2659 73.2096 21.8603 72.7536C21.3193 72.1449 20.3236 71.5945 20.0431 70.8014C19.968 70.5884 20.0479 70.2209 19.9714 70.0535C19.8735 69.8389 19.6158 69.8637 19.5562 69.6896C19.5354 69.6288 19.635 69.2297 19.6277 69.2232C19.1599 68.8311 18.5005 69.017 17.9585 68.5464C16.4606 67.2448 15.5568 64.6341 15.1259 62.7802C13.9987 57.9314 13.6139 53.0558 15.8015 48.4695C16.8648 46.2396 18.1666 44.1187 19.604 42.1124C20.0018 41.5576 20.4184 40.8249 20.9258 40.3565C21.1537 40.1461 21.4518 40.1031 21.5629 39.9771C22.1559 39.3054 22.4633 38.4415 23.258 37.7878C24.1427 37.0597 25.0149 36.3113 25.9921 35.7091C26.8889 35.1562 28.0056 34.7994 28.8278 34.2822C29.0534 34.1403 28.9758 33.9164 29.2208 33.7476C29.4804 33.5688 29.8163 33.555 30.1105 33.4679C30.4596 33.3651 30.8925 33.1756 31.2548 33.1443C31.9313 33.0854 32.1583 33.2795 32.6686 33.7606C32.6686 31.9092 36.0733 31.6515 37.4505 31.6481C38.086 31.6464 41.2792 31.3611 41.2179 32.3357C41.9453 31.3729 44.1568 32.0892 45.1188 32.3779C46.2732 32.7241 47.0035 33.571 47.7441 34.4757C47.8814 34.189 48.0189 33.902 48.1565 33.6153C48.3666 33.7623 49.0771 34.0068 48.8482 34.3946C49.68 33.6598 49.211 34.265 49.9235 34.3957C50.2366 34.4532 50.5064 34.3374 50.8358 34.2983C50.8631 34.7337 50.6743 34.8748 50.4051 35.1785C51.0504 35.1906 53.5303 34.9326 51.6948 35.7446C51.9401 36.184 53.1041 36.0297 53.5134 36.0888C53.7303 36.1201 54.2706 36.1313 54.4 36.2902C54.4852 36.3947 54.3353 36.6837 54.3544 36.7093C54.5294 36.9468 54.166 37.0687 54.5249 37.1374C54.6132 37.1543 54.8926 36.8735 54.9558 36.8746C55.4214 36.882 55.0948 36.7893 55.5885 36.8606C55.7626 36.8856 56.0968 37.0845 56.3204 37.1304C59.6919 37.8213 63.8131 35.2221 66.2623 33.2099C69.1895 30.8057 71.7374 28.2358 75.2563 26.6751C78.6605 25.1657 82.4529 23.9754 86.0709 23.1121C92.7614 21.5156 99.4055 21.4877 105.988 23.6946ZM191.154 177.539C191.262 177.597 191.371 177.654 191.479 177.712C191.633 177.633 191.787 177.555 191.942 177.477C191.499 177.267 191.469 177.175 191.154 177.539ZM227.084 167.963C226.273 168.475 225.576 169.633 224.866 170.323C223.87 171.293 222.828 172.215 221.787 173.136C222.987 173.553 224.727 175.239 226.024 174.475C226.667 174.097 227.073 172.984 227.48 172.394C228.109 171.48 228.845 170.623 229.585 169.798C230.347 168.948 227.934 167.425 227.084 167.963ZM151.052 150.462C151.374 150.597 152.078 151.374 151.751 151.646C151.42 151.263 150.976 150.986 151.052 150.462ZM47.831 138.168C47.244 138.676 46.5821 139.737 46.1734 140.404C45.7129 141.157 45.6966 141.536 46.3998 142.038C47.7587 143.008 49.7328 143.293 51.3089 143.746C52.1502 143.987 53.1905 144.595 53.9052 143.827C54.613 143.066 54.6146 141.649 54.9331 140.706C55.191 139.943 55.4669 139.185 55.7347 138.425C54.2492 138.575 52.7553 138.585 51.2948 138.252C50.2347 138.011 48.7686 137.357 47.831 138.168ZM73.4896 97.506C72.2901 99.1371 71.2201 100.865 70.2766 102.656C68.7155 105.622 67.502 108.771 66.7332 112.035C66.1884 114.348 65.3923 117.599 66.6365 119.818C69.3467 124.651 74.8476 110.699 75.6873 109.24C76.1871 108.371 76.9629 107.439 77.8223 108.556C78.5272 109.473 78.2977 110.942 78.3303 112.022C78.4276 115.23 77.9804 119.073 79.2617 122.092C79.6822 123.083 80.7961 124.514 82.0535 124.064C83.1806 123.66 83.7437 121.717 84.0923 120.715C85.1946 117.547 85.9766 113.675 86.0124 110.323C86.0194 109.65 85.416 105.198 86.9718 106.183C87.9895 106.827 87.9479 109.952 88.0467 110.975C88.4334 114.971 89.2216 121.756 94.1726 122.429C95.2626 122.577 96.4964 122.318 97.1346 121.337C97.9278 120.118 97.1301 118.478 96.8522 117.197C96.3731 114.987 95.8305 112.71 95.7827 110.435C95.7535 109.041 95.8905 106.723 97.8463 107.261C100.203 107.909 101.2 110.997 103.847 111.1C103.85 110.479 103.506 109.972 103.215 109.453C102.273 107.775 100.558 106.339 99.9773 104.482C99.7869 103.874 99.9849 102.958 99.6083 102.45C99.2524 101.971 98.4494 101.848 97.9124 101.74C94.3374 101.017 90.823 100.038 87.2647 99.2047C83.4608 98.3141 79.9339 97.3514 76.3717 95.7831C74.7666 95.0764 74.4001 96.2681 73.4896 97.506ZM158.781 122.532C159.306 122.782 159.827 123.042 160.358 123.278C160.819 123.484 161.001 123.32 161.185 122.888C160.851 122.819 158.975 122.151 158.781 122.532ZM136.256 68.4055C129.454 68.6052 122.804 68.6923 116.099 69.9854C112.893 70.6039 109.75 71.3205 106.605 72.1987C105.277 72.5696 104.106 72.9564 102.947 73.6963C102.517 73.9712 101.377 74.8345 101.202 73.8478C100.629 74.3973 99.5124 76.0749 98.5968 75.1429C98.4361 75.8166 97.9357 75.7958 97.4474 76.0248C97.2755 76.1053 97.1819 76.3794 96.9608 76.4788C96.9051 76.5036 96.8865 76.1186 96.8055 76.1121C96.5138 76.089 96.2837 76.7041 96.1161 76.861C95.7124 77.2371 95.3343 77.4091 94.7993 77.5458C94.567 77.6235 94.3287 77.6733 94.0848 77.6953C93.7977 77.8133 93.6255 77.7285 93.5687 77.441C93.1723 77.4474 92.8823 77.5917 92.4671 77.7798C93.3631 77.9854 91.8559 78.2116 91.6556 78.2344C91.6309 78.9048 92.203 78.48 92.5726 78.6189C92.4016 79.4602 90.8444 80.1024 90.2036 80.515C90.0942 80.2818 89.9847 80.0486 89.875 79.8157C89.6978 79.9872 89.5606 80.1846 89.4624 80.408C89.3963 80.6784 89.2045 80.7719 88.8872 80.6885C88.5901 80.9246 88.5457 80.8153 88.3631 81.1476C88.1744 81.4921 88.7324 82.1625 87.9218 81.8738C87.9218 83.0179 86.8605 82.3244 87.0464 82.0275C86.2436 81.9498 85.901 83.4212 85.991 83.9952C85.6072 83.6142 85.3717 83.6624 84.9861 83.96L84.952 83.9866L84.9722 83.9722C85.2689 83.7713 84.9638 84.5932 84.9903 84.5836L84.9938 84.5803C84.1786 85.6559 84.2554 84.4515 84.5077 83.817C83.9553 84.0386 83.8506 84.6386 83.4073 84.9771C83.0127 85.2785 82.9016 85.1385 82.562 85.1836C82.0391 85.2529 82.1969 84.8222 81.9677 85.399C81.8706 85.6435 82.0177 86.0815 82.0177 86.3483C82.2445 86.0379 82.1587 85.5469 82.5682 85.3692C82.4459 86.2685 80.6991 89.3584 79.9646 87.5374C79.2501 88.0346 80.0375 88.5793 79.5685 89.2451C79.2197 88.9083 79.1362 88.3723 79.1753 87.9132C78.9562 88.205 78.9632 88.5736 78.7916 88.8688C78.6127 89.1767 78.4254 89.2015 78.339 89.5361C78.2082 90.0442 78.6552 89.7952 78.4192 90.3343C78.3008 90.605 77.746 90.8419 77.5278 90.9943C76.7632 91.5277 75.9902 92.1457 76.7323 93.0324C77.8943 94.4201 80.9562 94.579 82.6006 94.8122C86.1072 95.3096 89.5246 96.1357 92.9794 96.901C95.0598 97.3621 97.0975 97.8753 99.138 98.4901C100.603 98.9312 102.627 99.2055 103.4 100.725C107.485 96.8145 112.931 94.7744 117.972 92.4293C123.432 89.8896 129.07 87.5312 134.854 85.8339C139.982 84.3287 145.242 83.7575 150.539 83.2387C151.935 83.1018 154.088 82.7517 155.332 83.6105C156.101 84.1406 156.136 84.9433 155.548 85.6525C155.229 86.0367 154.886 85.937 154.691 86.622C154.54 87.1515 154.623 87.5526 154.761 88.0768C154.408 87.7997 153.775 87.9647 153.594 87.476L153.577 87.4212L153.56 87.4793C153.318 88.4334 155.004 88.5654 154.487 89.7096L154.453 89.7794C154.275 90.129 154.274 89.0077 154.117 88.9995C153.689 88.9773 153.339 89.9772 153.163 90.2543C153.959 90.2543 153.656 90.8334 153.229 91.1258C152.924 91.3345 152.411 91.3951 152.057 91.5674C151.351 91.9122 150.731 92.4175 150.007 92.7462C149.214 93.1064 148.517 93.1287 147.73 93.3425C147.608 93.3754 147.124 93.5568 147.075 93.561C147.009 93.567 146.993 93.7714 146.937 93.7793C146.433 93.8506 146.053 93.3827 145.566 93.5734C145.379 93.6467 145.476 94.1027 145.314 94.206C145.136 94.3201 144.63 94.1745 144.414 94.1624C143.894 94.1325 143.814 94.0638 143.402 94.3052C142.693 94.7198 142.332 95.2803 141.376 95.382C140.629 95.4617 140.148 95.3203 139.437 95.6008C138.717 95.8845 138.035 95.9473 137.334 96.1374C137.245 96.1616 137.222 96.4661 137.149 96.4872C136.917 96.556 136.64 96.5036 136.418 96.5717C135.909 96.7286 135.496 96.8683 135.023 97.1497C132.945 98.3865 130.658 100.243 129.029 102.025C128.285 102.839 126.21 104.889 126.886 106.067C127.321 106.822 128.819 107.19 129.567 107.509C130.681 107.985 131.834 108.332 132.961 108.773C134.362 109.321 135.633 110.174 137.062 110.651C138.442 111.113 139.918 111.203 141.343 111.45C147.508 112.514 153.548 114.227 159.717 115.288C163.1 115.871 166.554 116.566 169.991 116.017C173.019 115.533 175.919 114.192 178.338 112.318C182.739 108.908 185.807 104.067 187.349 98.7408C187.668 97.6406 187.735 94.8885 188.762 94.2153C189.619 93.6548 190.068 94.8902 190.623 95.3783C191.526 96.1712 192.849 96.4779 193.935 96.9303C196.624 98.0499 199.066 99.2317 201.908 99.9891C204.789 100.757 207.71 101.359 210.622 101.991C216.526 103.274 222.161 104.488 228.229 104.508C234.234 104.527 240.261 104.753 246.199 103.645C251.394 102.677 256.618 100.031 260.501 96.4377C262.462 94.6235 263.974 92.3322 265.516 90.1665C266.343 89.0049 267.112 87.8008 267.758 86.5279C268.232 85.5925 269.049 84.238 269.132 83.1773C269.207 82.2295 268.653 82.3641 267.708 82.2673C266.253 82.1185 264.792 82.0242 263.337 81.8743C260.401 81.573 257.476 81.1885 254.542 80.8761C251.547 80.5573 248.573 80.1249 245.664 79.3306C244.794 79.0932 244.151 78.7938 243.537 79.6399C243.142 80.1846 243.149 81.4276 242.323 80.515C240.735 82.523 238.412 83.7254 236.242 84.9856C233.894 86.3491 231.612 87.8495 229.123 88.9505C223.761 91.3232 217.852 91.1351 212.162 90.3749C206.38 89.6023 200.521 88.6058 195.087 86.4026C192.595 85.3923 190.454 83.855 188.219 82.3881C187.167 81.6972 186.075 81.1288 184.957 80.5531C183.697 79.9041 182.927 78.942 181.788 78.1919C181.02 80.6956 178.066 81.5563 175.734 81.6681C172.821 81.8079 170.466 80.4153 168.7 78.1536C167.233 76.276 166.948 73.4676 164.678 72.4398C162.088 71.2675 159.052 70.8016 156.281 70.2563C149.771 68.9762 142.889 68.2104 136.256 68.4055ZM167.956 93.5791C166.647 94.4091 166.307 92.055 166.828 91.2895C168.121 89.3888 170.02 92.2713 167.956 93.5791ZM150.473 91.2035C150.847 91.4818 150.723 91.3286 150.723 92.0694C150.288 92.0885 150.354 91.4917 150.473 91.2035ZM151.952 90.5628C151.826 90.8568 152.392 91.2097 152.575 91.2556C152.586 91.1607 152.31 89.7287 151.952 90.5628ZM80.9165 86.2618C80.5684 86.7669 80.7651 87.0766 81.3186 86.8778L81.3643 86.8606L80.9165 86.2618ZM87.9125 81.4048L87.5811 81.5451C87.4247 81.6946 87.2689 81.8439 87.1128 81.9932C87.5682 81.9045 87.8843 81.9729 87.9125 81.4048ZM89.7479 80.695C89.5197 80.2291 88.7358 81.1532 88.7183 81.3695C88.9012 81.2611 90.0134 81.2374 89.7479 80.695ZM90.4838 79.0487C90.2933 79.3171 90.3321 79.5323 90.6002 79.6943C90.8227 79.3965 90.9918 79.0712 91.1068 78.7177C90.8098 78.5017 90.5895 78.7941 90.4838 79.0487ZM240.586 45.7918C240.012 46.0498 240.312 46.9381 240.368 47.4195C240.634 49.7122 241.058 51.9821 241.321 54.2743C241.69 57.4982 241.742 60.761 242.346 63.9561C242.897 66.8699 243.827 69.6995 244.317 72.6268C244.646 74.5852 244.019 76.8481 246.352 77.4421C248.45 77.9764 250.842 78.0054 252.992 78.2403C255.763 78.5428 258.538 78.6916 261.321 78.8265C262.638 78.8901 263.996 78.9067 265.3 79.1067C266.069 79.2245 267.025 79.7345 267.616 79.0225C268.191 78.3302 268.193 76.5681 268.372 75.6842C268.609 74.5173 268.821 73.3442 268.938 72.1581C269.2 69.4728 268.814 66.8136 268.459 64.1547C268.076 61.2885 267.782 58.4102 267.387 55.5468C267.131 53.7011 267.16 50.7206 265.892 49.2309C264.735 52.6894 264.422 56.3614 264.364 59.9878C264.351 60.7663 263.843 65.2405 262.49 63.0593C262.115 62.4526 262.108 62.1062 261.524 61.5933C260.922 61.0646 260.711 60.6418 260.508 59.8413C260.139 58.3913 260.079 57.1163 259.281 55.8125C257.657 53.1586 256.998 49.873 254.579 47.7307C254.555 50.2209 254.196 52.9142 254.658 55.3739C254.949 56.9197 256.14 59.1445 255.158 60.6737C254.668 61.4364 254.385 61.2088 253.809 60.8257C253.439 60.5801 253.496 60.4658 253.032 60.2199C252.59 59.9855 252.241 59.9965 251.823 59.6692C250.34 58.5111 250.223 56.4986 249.738 54.8323C248.669 51.1538 244.971 48.8819 242.139 46.6066C241.831 46.359 241.06 45.5791 240.586 45.7918ZM184.708 53.2443C182.537 54.1123 180.299 54.443 177.992 53.9526C177.994 54.4602 178.725 55.2849 178.161 55.5767C178.026 55.6463 177.257 55.3131 177.107 55.2742C176.275 55.0582 175.154 54.6867 174.284 54.8638C173.364 55.0514 173.396 55.6482 173.997 56.3242C174.842 57.2732 176.961 57.3117 176.984 58.8862C176.995 59.567 176.575 60.4199 176.486 61.1221C176.352 62.1721 176.206 63.2137 175.959 64.2448C175.535 66.0176 174.85 67.7039 174.033 69.33C173.329 70.7307 172.474 72.1902 171.163 73.1056C170.309 73.7022 170.638 73.4329 170.806 74.3123C170.918 74.9012 170.899 75.3398 170.14 75.1944C169.994 75.1497 169.849 75.1052 169.704 75.0604C171.485 77.9829 175.989 79.825 179.073 77.8747C177.773 76.8253 179.537 74.9956 180.283 74.2205C181.398 73.0592 182.568 71.723 183.765 70.6628C185.597 69.0399 187.995 69.8296 190.162 69.1469C192.356 68.456 193.952 66.897 195.37 65.1546C196.633 63.6029 198.308 61.704 198.479 59.6036C198.512 59.1924 198.313 58.7102 198.385 58.3212C198.459 57.9246 198.699 57.8731 198.824 57.6134C199.08 57.0791 199.143 56.529 199.183 55.9172C199.316 53.9208 198.683 53.6073 196.81 53.0916C195.719 52.7908 194.613 52.5548 193.52 52.261C192.477 51.9807 191.547 51.4413 190.518 51.1405C188.353 50.5071 186.615 52.4821 184.708 53.2443ZM190.288 65.7899C192.01 66.836 189.295 67.5058 188.293 67.0433C186.94 66.4186 189.326 65.2058 190.288 65.7899ZM193.531 57.092C195.095 58.962 196.832 62.7627 193.409 63.532C192.353 63.7694 190.718 64.153 189.656 63.8621C188.138 63.446 188.534 61.4631 190.048 61.3761C190.945 61.3246 193.003 62.0349 193.535 60.9919C193.825 60.4263 193.167 59.5276 193.067 58.9631C192.939 58.2367 193.056 57.6562 193.531 57.092ZM100.221 62.7073L100.223 62.7094C100.228 62.7171 100.237 62.7263 100.249 62.7371L100.255 62.742L100.244 62.7311L100.221 62.7073ZM196.628 57.7605C197.713 57.758 197.175 60.0668 196.636 60.4611C195.67 61.1686 195.257 57.7634 196.628 57.7605ZM189.472 59.5013C188.212 59.6542 188.496 56.6359 189.644 56.5433C191.15 56.4213 190.928 59.3247 189.472 59.5013ZM200.368 54.4917C200.217 54.7993 200.332 57.7939 200.693 57.8506C200.791 57.1191 200.737 56.3836 200.727 55.6489L200.725 55.4633C200.733 55.4748 200.793 53.6239 200.368 54.4917Z" fill="black"/>
<path d="M154.764 103.131C155.171 100.864 156.254 98.6655 157.035 96.5215C157.888 94.1772 158.746 91.8378 159.626 89.5056C159.839 88.9405 159.896 88.9099 160.115 89.4379C160.764 91.0052 161.233 92.6515 161.567 94.3126C161.956 96.2518 162.36 98.1583 162.36 100.152C162.36 101.348 162.36 103.74 162.36 103.74" stroke="black" stroke-width="3" stroke-linecap="round" stroke-linejoin="round"/>
<path d="M156.283 98.4084C158.082 98.1719 159.937 98.1038 161.752 98.1038" stroke="black" stroke-width="3" stroke-linecap="round" stroke-linejoin="round"/>
<path d="M167.678 97.4946C167.413 99.7889 167.526 102.055 167.526 104.35" stroke="black" stroke-width="3" stroke-linecap="round" stroke-linejoin="round"/>
<path d="M177.704 88.6592C178.174 92.3685 177.871 96.2494 177.586 99.9658C177.487 101.259 177.248 102.602 177.248 103.893" stroke="black" stroke-width="3" stroke-linecap="round" stroke-linejoin="round"/>
<path d="M177.552 97.1898C175.234 97.1596 173.3 96.7186 171.931 98.8993C171.276 99.9431 171.023 101.587 171.661 102.674C172.145 103.5 173.087 103.75 173.906 104.079C174.983 104.51 175.714 104.36 176.641 103.74" stroke="black" stroke-width="3" stroke-linecap="round" stroke-linejoin="round"/>
<path d="M238.266 20.2461L234.546 20.2461L234.066 21.7581L233.19 21.7581L236.046 13.3581L236.778 13.3581L239.634 21.7581L238.758 21.7581L238.266 20.2461ZM238.038 19.5141L236.406 14.4501L234.786 19.5141L238.038 19.5141ZM240.836 16.2861L241.616 16.2861L241.616 21.7581L240.836 21.7581L240.836 16.2861ZM241.244 15.1821C241.036 15.1821 240.864 15.1141 240.728 14.9781C240.592 14.8421 240.524 14.6701 240.524 14.4621C240.524 14.2621 240.592 14.0941 240.728 13.9581C240.864 13.8141 241.036 13.7421 241.244 13.7421C241.452 13.7421 241.624 13.8141 241.76 13.9581C241.896 14.0941 241.964 14.2621 241.964 14.4621C241.964 14.6701 241.896 14.8421 241.76 14.9781C241.624 15.1141 241.452 15.1821 241.244 15.1821ZM248.703 13.3581L248.703 21.7581L247.923 21.7581L247.923 20.5821C247.755 20.9741 247.475 21.2941 247.083 21.5421C246.699 21.7821 246.267 21.9021 245.787 21.9021C245.227 21.9021 244.739 21.7781 244.323 21.5301C243.915 21.2741 243.599 20.9301 243.375 20.4981C243.159 20.0661 243.051 19.5781 243.051 19.0341C243.051 18.4901 243.163 17.9981 243.387 17.5581C243.611 17.1181 243.931 16.7741 244.347 16.5261C244.763 16.2701 245.247 16.1421 245.799 16.1421C246.295 16.1421 246.731 16.2661 247.107 16.5141C247.483 16.7541 247.755 17.0781 247.923 17.4861L247.923 16.2861L247.935 16.2861L247.935 13.3581L248.703 13.3581ZM245.883 21.1941C246.307 21.1941 246.675 21.0981 246.987 20.9061C247.307 20.7061 247.551 20.4421 247.719 20.1141C247.887 19.7861 247.971 19.4261 247.971 19.0341C247.971 18.6341 247.887 18.2701 247.719 17.9421C247.551 17.6061 247.307 17.3421 246.987 17.1501C246.675 16.9501 246.307 16.8501 245.883 16.8501C245.267 16.8501 244.771 17.0581 244.395 17.4741C244.019 17.8821 243.831 18.4021 243.831 19.0341C243.831 19.4421 243.915 19.8101 244.083 20.1381C244.251 20.4661 244.491 20.7261 244.803 20.9181C245.115 21.1021 245.475 21.1941 245.883 21.1941ZM258.42 18.6861C258.42 18.8941 258.412 19.0661 258.396 19.2021L253.98 19.2021C253.98 19.8101 254.152 20.2981 254.496 20.6661C254.848 21.0261 255.316 21.2061 255.9 21.2061C256.308 21.2061 256.656 21.1181 256.944 20.9421C257.24 20.7661 257.448 20.5221 257.568 20.2101L258.348 20.2101C258.244 20.7141 257.964 21.1221 257.508 21.4341C257.06 21.7461 256.528 21.9021 255.912 21.9021C255.368 21.9021 254.888 21.7861 254.472 21.5541C254.064 21.3141 253.748 20.9741 253.524 20.5341C253.308 20.0941 253.2 19.5861 253.2 19.0101C253.2 18.4421 253.308 17.9421 253.524 17.5101C253.748 17.0701 254.06 16.7341 254.46 16.5021C254.868 16.2621 255.336 16.1421 255.864 16.1421C256.368 16.1421 256.812 16.2501 257.196 16.4661C257.58 16.6821 257.88 16.9861 258.096 17.3781C258.312 17.7621 258.42 18.1981 258.42 18.6861ZM257.664 18.5901C257.656 18.0461 257.492 17.6101 257.172 17.2821C256.852 16.9461 256.412 16.7781 255.852 16.7781C255.316 16.7781 254.88 16.9461 254.544 17.2821C254.208 17.6101 254.02 18.0461 253.98 18.5901L257.664 18.5901ZM261.608 21.9021C261.152 21.9021 260.756 21.8261 260.42 21.6741C260.084 21.5141 259.824 21.3021 259.64 21.0381C259.464 20.7661 259.376 20.4701 259.376 20.1501L260.156 20.1501C260.156 20.4621 260.288 20.7261 260.552 20.9421C260.816 21.1501 261.176 21.2541 261.632 21.2541C262.008 21.2541 262.308 21.1741 262.532 21.0141C262.764 20.8461 262.88 20.6181 262.88 20.3301C262.88 20.1301 262.824 19.9501 262.712 19.7901C262.608 19.6301 262.448 19.5221 262.232 19.4661L260.708 19.0821C260.308 18.9861 260.012 18.8141 259.82 18.5661C259.636 18.3181 259.544 18.0181 259.544 17.6661C259.544 17.2101 259.728 16.8421 260.096 16.5621C260.464 16.2821 260.944 16.1421 261.536 16.1421C262.176 16.1421 262.676 16.2901 263.036 16.5861C263.396 16.8741 263.576 17.2581 263.576 17.7381L262.82 17.7381C262.812 17.4341 262.692 17.1981 262.46 17.0301C262.228 16.8541 261.908 16.7661 261.5 16.7661C261.156 16.7661 260.872 16.8421 260.648 16.9941C260.424 17.1461 260.312 17.3621 260.312 17.6421C260.312 18.0661 260.564 18.3421 261.068 18.4701L262.496 18.8421C262.88 18.9381 263.168 19.1181 263.36 19.3821C263.56 19.6381 263.66 19.9261 263.66 20.2461C263.66 20.7581 263.476 21.1621 263.108 21.4581C262.74 21.7541 262.24 21.9021 261.608 21.9021ZM266.983 21.1221C267.103 21.1221 267.231 21.1141 267.367 21.0981C267.511 21.0821 267.627 21.0621 267.715 21.0381L267.715 21.7341C267.507 21.7981 267.211 21.8301 266.827 21.8301C266.371 21.8301 265.995 21.7101 265.699 21.4701C265.403 21.2221 265.255 20.7221 265.255 19.9701L265.255 16.9581L264.199 16.9581L264.199 16.2861L265.255 16.2861L265.255 14.4741L266.023 14.4741L266.023 16.2861L267.535 16.2861L267.535 16.9581L266.023 16.9581L266.023 19.8261C266.023 20.3461 266.103 20.6941 266.263 20.8701C266.431 21.0381 266.671 21.1221 266.983 21.1221ZM269.031 16.2861L269.811 16.2861L269.811 21.7581L269.031 21.7581L269.031 16.2861ZM269.439 15.1821C269.231 15.1821 269.059 15.1141 268.923 14.9781C268.787 14.8421 268.719 14.6701 268.719 14.4621C268.719 14.2621 268.787 14.0941 268.923 13.9581C269.059 13.8141 269.231 13.7421 269.439 13.7421C269.647 13.7421 269.819 13.8141 269.955 13.9581C270.091 14.0941 270.159 14.2621 270.159 14.4621C270.159 14.6701 270.091 14.8421 269.955 14.9781C269.819 15.1141 269.647 15.1821 269.439 15.1821ZM271.727 16.2861L272.507 16.2861L272.507 17.5221C272.611 17.1381 272.807 16.8141 273.095 16.5501C273.391 16.2781 273.779 16.1421 274.259 16.1421C274.731 16.1421 275.123 16.2581 275.435 16.4901C275.747 16.7221 275.947 17.0661 276.035 17.5221C276.147 17.1301 276.371 16.8021 276.707 16.5381C277.043 16.2741 277.439 16.1421 277.895 16.1421C278.535 16.1421 279.019 16.3261 279.347 16.6941C279.683 17.0621 279.851 17.5941 279.851 18.2901L279.851 21.7581L279.083 21.7581L279.083 18.4581C279.083 17.8981 278.959 17.4861 278.711 17.2221C278.471 16.9581 278.139 16.8261 277.715 16.8261C277.227 16.8261 276.847 17.0141 276.575 17.3901C276.311 17.7581 276.179 18.2821 276.179 18.9621L276.179 21.7581L275.399 21.7581L275.399 18.6141C275.399 17.4221 274.947 16.8261 274.043 16.8261C273.539 16.8261 273.155 17.0181 272.891 17.4021C272.635 17.7861 272.507 18.3061 272.507 18.9621L272.507 21.7581L271.727 21.7581L271.727 16.2861ZM283.967 21.9021C283.407 21.9021 282.919 21.7781 282.503 21.5301C282.095 21.2741 281.779 20.9301 281.555 20.4981C281.339 20.0661 281.231 19.5781 281.231 19.0341C281.231 18.4901 281.343 17.9981 281.567 17.5581C281.791 17.1181 282.111 16.7741 282.527 16.5261C282.943 16.2701 283.427 16.1421 283.979 16.1421C284.475 16.1421 284.911 16.2661 285.287 16.5141C285.663 16.7541 285.935 17.0781 286.103 17.4861L286.103 16.2861L286.883 16.2861L286.883 21.7581L286.103 21.7581L286.103 20.5821C285.935 20.9741 285.655 21.2941 285.263 21.5421C284.879 21.7821 284.447 21.9021 283.967 21.9021ZM284.063 21.1941C284.487 21.1941 284.855 21.0981 285.167 20.9061C285.487 20.7061 285.731 20.4421 285.899 20.1141C286.067 19.7861 286.151 19.4261 286.151 19.0341C286.151 18.6341 286.067 18.2701 285.899 17.9421C285.731 17.6061 285.487 17.3421 285.167 17.1501C284.855 16.9501 284.487 16.8501 284.063 16.8501C283.447 16.8501 282.951 17.0581 282.575 17.4741C282.199 17.8821 282.011 18.4021 282.011 19.0341C282.011 19.4421 282.095 19.8101 282.263 20.1381C282.431 20.4661 282.671 20.7261 282.983 20.9181C283.295 21.1021 283.655 21.1941 284.063 21.1941ZM290.901 21.1221C291.021 21.1221 291.149 21.1141 291.285 21.0981C291.429 21.0821 291.545 21.0621 291.633 21.0381L291.633 21.7341C291.425 21.7981 291.129 21.8301 290.745 21.8301C290.289 21.8301 289.913 21.7101 289.617 21.4701C289.321 21.2221 289.173 20.7221 289.173 19.9701L289.173 16.9581L288.117 16.9581L288.117 16.2861L289.173 16.2861L289.173 14.4741L289.941 14.4741L289.941 16.2861L291.453 16.2861L291.453 16.9581L289.941 16.9581L289.941 19.8261C289.941 20.3461 290.021 20.6941 290.181 20.8701C290.349 21.0381 290.589 21.1221 290.901 21.1221ZM297.596 18.6861C297.596 18.8941 297.588 19.0661 297.572 19.2021L293.156 19.2021C293.156 19.8101 293.328 20.2981 293.672 20.6661C294.024 21.0261 294.492 21.2061 295.076 21.2061C295.484 21.2061 295.832 21.1181 296.12 20.9421C296.416 20.7661 296.624 20.5221 296.744 20.2101L297.524 20.2101C297.42 20.7141 297.14 21.1221 296.684 21.4341C296.236 21.7461 295.704 21.9021 295.088 21.9021C294.544 21.9021 294.064 21.7861 293.648 21.5541C293.24 21.3141 292.924 20.9741 292.7 20.5341C292.484 20.0941 292.376 19.5861 292.376 19.0101C292.376 18.4421 292.484 17.9421 292.7 17.5101C292.924 17.0701 293.236 16.7341 293.636 16.5021C294.044 16.2621 294.512 16.1421 295.04 16.1421C295.544 16.1421 295.988 16.2501 296.372 16.4661C296.756 16.6821 297.056 16.9861 297.272 17.3781C297.488 17.7621 297.596 18.1981 297.596 18.6861ZM296.84 18.5901C296.832 18.0461 296.668 17.6101 296.348 17.2821C296.028 16.9461 295.588 16.7781 295.028 16.7781C294.492 16.7781 294.056 16.9461 293.72 17.2821C293.384 17.6101 293.196 18.0461 293.156 18.5901L296.84 18.5901ZM304.19 21.1221C304.31 21.1221 304.438 21.1141 304.574 21.0981C304.718 21.0821 304.834 21.0621 304.922 21.0381L304.922 21.7341C304.714 21.7981 304.418 21.8301 304.034 21.8301C303.578 21.8301 303.202 21.7101 302.906 21.4701C302.61 21.2221 302.462 20.7221 302.462 19.9701L302.462 16.9581L301.406 16.9581L301.406 16.2861L302.462 16.2861L302.462 14.4741L303.23 14.4741L303.23 16.2861L304.742 16.2861L304.742 16.9581L303.23 16.9581L303.23 19.8261C303.23 20.3461 303.31 20.6941 303.47 20.8701C303.638 21.0381 303.878 21.1221 304.19 21.1221ZM309.094 16.1421C309.782 16.1421 310.298 16.3421 310.642 16.7421C310.994 17.1341 311.17 17.7061 311.17 18.4581L311.17 21.7581L310.402 21.7581L310.402 18.7701C310.402 18.1141 310.274 17.6261 310.018 17.3061C309.762 16.9861 309.37 16.8261 308.842 16.8261C308.258 16.8261 307.814 17.0221 307.51 17.4141C307.206 17.7981 307.054 18.3181 307.054 18.9741L307.054 21.7581L306.274 21.7581L306.274 13.3581L307.042 13.3581L307.042 16.2861L307.054 16.2861L307.054 17.5461C307.182 17.1221 307.422 16.7821 307.774 16.5261C308.126 16.2701 308.566 16.1421 309.094 16.1421ZM313.035 16.2861L313.815 16.2861L313.815 21.7581L313.035 21.7581L313.035 16.2861ZM313.443 15.1821C313.235 15.1821 313.063 15.1141 312.927 14.9781C312.791 14.8421 312.723 14.6701 312.723 14.4621C312.723 14.2621 312.791 14.0941 312.927 13.9581C313.063 13.8141 313.235 13.7421 313.443 13.7421C313.651 13.7421 313.823 13.8141 313.959 13.9581C314.095 14.0941 314.163 14.2621 314.163 14.4621C314.163 14.6701 314.095 14.8421 313.959 14.9781C313.823 15.1141 313.651 15.1821 313.443 15.1821ZM317.483 21.9021C317.027 21.9021 316.631 21.8261 316.295 21.6741C315.959 21.5141 315.699 21.3021 315.515 21.0381C315.339 20.7661 315.251 20.4701 315.251 20.1501L316.031 20.1501C316.031 20.4621 316.163 20.7261 316.427 20.9421C316.691 21.1501 317.051 21.2541 317.507 21.2541C317.883 21.2541 318.183 21.1741 318.407 21.0141C318.639 20.8461 318.755 20.6181 318.755 20.3301C318.755 20.1301 318.699 19.9501 318.587 19.7901C318.483 19.6301 318.323 19.5221 318.107 19.4661L316.583 19.0821C316.183 18.9861 315.887 18.8141 315.695 18.5661C315.511 18.3181 315.419 18.0181 315.419 17.6661C315.419 17.2101 315.603 16.8421 315.971 16.5621C316.339 16.2821 316.819 16.1421 317.411 16.1421C318.051 16.1421 318.551 16.2901 318.911 16.5861C319.271 16.8741 319.451 17.2581 319.451 17.7381L318.695 17.7381C318.687 17.4341 318.567 17.1981 318.335 17.0301C318.103 16.8541 317.783 16.7661 317.375 16.7661C317.031 16.7661 316.747 16.8421 316.523 16.9941C316.299 17.1461 316.187 17.3621 316.187 17.6421C316.187 18.0661 316.439 18.3421 316.943 18.4701L318.371 18.8421C318.755 18.9381 319.043 19.1181 319.235 19.3821C319.435 19.6381 319.535 19.9261 319.535 20.2461C319.535 20.7581 319.351 21.1621 318.983 21.4581C318.615 21.7541 318.115 21.9021 317.483 21.9021ZM323.258 16.2861L324.11 16.2861L325.598 20.6661L327.074 16.2861L327.914 16.2861L329.378 20.6661L330.89 16.2861L331.73 16.2861L329.714 21.7581L329.042 21.7581L327.494 17.2461L325.946 21.7581L325.286 21.7581L323.258 16.2861ZM334.779 21.9021C334.219 21.9021 333.731 21.7781 333.315 21.5301C332.907 21.2741 332.591 20.9301 332.367 20.4981C332.151 20.0661 332.043 19.5781 332.043 19.0341C332.043 18.4901 332.155 17.9981 332.379 17.5581C332.603 17.1181 332.923 16.7741 333.339 16.5261C333.755 16.2701 334.239 16.1421 334.791 16.1421C335.287 16.1421 335.723 16.2661 336.099 16.5141C336.475 16.7541 336.747 17.0781 336.915 17.4861L336.915 16.2861L337.695 16.2861L337.695 21.7581L336.915 21.7581L336.915 20.5821C336.747 20.9741 336.467 21.2941 336.075 21.5421C335.691 21.7821 335.259 21.9021 334.779 21.9021ZM334.875 21.1941C335.299 21.1941 335.667 21.0981 335.979 20.9061C336.299 20.7061 336.543 20.4421 336.711 20.1141C336.879 19.7861 336.963 19.4261 336.963 19.0341C336.963 18.6341 336.879 18.2701 336.711 17.9421C336.543 17.6061 336.299 17.3421 335.979 17.1501C335.667 16.9501 335.299 16.8501 334.875 16.8501C334.259 16.8501 333.763 17.0581 333.387 17.4741C333.011 17.8821 332.823 18.4021 332.823 19.0341C332.823 19.4421 332.907 19.8101 333.075 20.1381C333.243 20.4661 333.483 20.7261 333.795 20.9181C334.107 21.1021 334.467 21.1941 334.875 21.1941ZM344.497 16.2861L344.497 21.9381C344.497 22.8261 344.241 23.4901 343.729 23.9301C343.297 24.2981 342.721 24.4821 342.001 24.4821C341.217 24.4821 340.605 24.2981 340.165 23.9301C339.765 23.5861 339.561 23.1181 339.553 22.5261L340.333 22.5261C340.349 22.9181 340.489 23.2301 340.753 23.4621C341.017 23.7021 341.429 23.8221 341.989 23.8221C343.149 23.8221 343.729 23.1781 343.729 21.8901L343.729 20.5461C343.569 20.9461 343.313 21.2701 342.961 21.5181C342.609 21.7661 342.185 21.8901 341.689 21.8901C340.961 21.8901 340.421 21.6781 340.069 21.2541C339.725 20.8301 339.553 20.2341 339.553 19.4661L339.553 16.2861L340.321 16.2861L340.321 19.3221C340.321 19.9301 340.441 20.3941 340.681 20.7141C340.929 21.0261 341.345 21.1821 341.929 21.1821C342.321 21.1821 342.649 21.0821 342.913 20.8821C343.185 20.6821 343.389 20.4221 343.525 20.1021C343.661 19.7821 343.729 19.4421 343.729 19.0821L343.729 16.2861L344.497 16.2861ZM353.729 19.6701L355.745 17.8821L348.641 17.8821L348.641 17.2341L355.733 17.2341L353.729 15.4461L354.173 14.9661L357.041 17.5581L354.173 20.1501L353.729 19.6701Z" fill="black"/>
</svg>
