<svg width="263" height="205" viewBox="0 0 263 205" fill="none" xmlns="http://www.w3.org/2000/svg">
<path fill-rule="evenodd" clip-rule="evenodd" d="M111.83 96.0057C108.995 98.0619 109.447 102.108 110.3 105.047C111.557 109.376 114.06 113.383 116.915 116.837C121.98 122.964 130.58 129.844 138.506 124.465C145.565 119.674 150.018 110.007 151.555 101.865C152.03 99.3488 152.663 95.5996 150.431 93.7078C147.131 90.9116 141.311 91.4202 137.327 91.7803C134.704 92.0171 132.173 92.8218 129.581 92.4441C123.558 91.5659 116.854 92.3614 111.83 96.0057Z" fill="black"/>
<path fill-rule="evenodd" clip-rule="evenodd" d="M233.95 128.07C228.208 135.359 218.444 136.51 209.773 136.439C204.566 136.396 199.349 136.003 194.244 134.942C191.492 134.369 188.759 133.611 186.1 132.7C184.343 132.098 181.728 131.797 180.981 129.914C179.009 124.945 180.46 118.714 181.272 113.671C181.685 111.106 181.995 108.526 182.396 105.958C182.653 104.316 182.776 102.498 183.464 100.962C184.27 99.1618 185.287 99.5212 186.991 100.019C189.338 100.704 191.748 100.989 194.161 101.358C200.051 102.258 205.189 104.072 210.542 106.644C215.834 109.187 220.968 111.697 225.689 115.234C228.081 117.026 230.142 118.971 232.062 121.254C233.545 123.019 235.759 125.773 233.95 128.07ZM208.848 160.445C208.802 161.229 199.801 158.86 198.617 158.594C190.846 156.85 182.921 154.864 175.584 151.713C168.736 148.772 162.703 145.407 157.314 140.181C154.802 137.745 152.543 135.18 150.381 132.448C149.298 131.079 147.817 131.238 146.609 130.08C145.522 129.037 144.689 128.223 145.028 126.665C147.744 127.381 152.759 131.881 155.574 129.609C157.179 128.313 154.953 126.96 153.926 126.209C151.994 124.798 150.343 123.056 148.807 121.229C151.444 121.74 153.897 122.728 156.192 124.103C157.211 124.714 160.705 126.929 161.518 124.817C162.019 123.517 159.65 121.884 158.911 121.164C157.097 119.399 155.139 117.337 154.177 114.963C156.557 114.41 158.801 116.251 160.423 117.751C162.222 119.416 164.429 121.163 165.938 123.082C166.716 124.071 166.886 125.24 167.494 126.307C168.178 127.508 169.273 128.537 170.319 129.425C172.335 131.138 174.692 132.398 177.112 133.44C182.642 135.823 188.568 137.509 194.463 138.691C197.354 139.271 200.175 139.539 203.109 139.637C205.39 139.714 206.4 140.396 207.271 142.499C209.627 148.189 209.199 154.449 208.848 160.445ZM141.162 117.088C139.844 118.323 138.13 119.097 136.752 120.284C135.539 121.329 134.139 122.443 132.786 123.288C131.341 124.189 130.261 123.557 128.959 122.741C127.432 121.784 125.676 121.397 124.102 120.54C118.662 117.578 112.007 110.319 113.023 103.653C113.453 100.828 114.913 98.0488 117.563 96.767C119.971 95.6032 123.47 94.9573 126.045 95.9302C127.498 96.4791 128.537 97.6908 129.468 98.882C130.553 100.271 130.969 100.052 132.074 98.7124C134.052 96.3165 137.314 94.2145 140.538 94.265C142.141 94.2904 143.733 94.6284 145.176 95.2939C145.372 95.3842 145.481 95.6574 145.677 95.7499C145.918 95.8634 146.314 95.6271 146.482 95.7333C146.904 96.0009 147.326 96.8374 147.57 97.2617C148.548 98.9645 150.31 102.304 148.535 103.738C148.534 103.739 148.614 105.678 148.589 105.899C148.464 107.056 148.064 108.011 147.549 109.069C146.003 112.247 143.72 114.695 141.162 117.088ZM143.792 143.981C142.543 144.37 141.197 140.452 142.395 139.827C143.538 139.231 144.923 143.63 143.792 143.981ZM124.171 139.297C123.738 140.777 123.555 142.456 122.497 143.661C121.529 142.51 121.433 140.388 122.372 139.206C122.909 138.531 124.644 137.68 124.171 139.297ZM164.148 113.37C164.141 113.408 165.652 114.13 164.915 114.921C163.908 116 164.046 113.899 164.148 113.37ZM170.389 101.31C170.372 102.807 167.206 102.445 167.229 100.941C167.257 99.0884 170.408 99.7243 170.389 101.31ZM166.611 88.8056C166.924 87.4357 172.43 85.5301 172.28 87.9175C172.205 89.1145 165.946 91.7179 166.611 88.8056ZM110.164 135.262C109.547 136.004 108.67 136.297 107.93 136.867C107.154 137.464 106.6 138.239 105.922 138.94C104.061 140.865 101.821 142.447 99.8137 144.215C96.1228 147.466 92.5873 150.961 88.4951 153.718C81.1824 158.644 72.7024 161.339 64.284 163.698C63.5866 163.894 61.5776 164.683 60.8877 164.095C60.1434 163.461 60.5218 161.231 60.5562 160.388C60.6957 156.931 61.0985 153.434 61.0549 149.982C61.0368 148.564 60.6219 146.549 61.3613 145.251C62.1868 143.803 64.4914 143.379 65.9171 142.833C70.2504 141.176 74.4245 138.381 78.2523 135.792C82.9577 132.609 87.7099 129.373 92.5522 126.402C97.2963 123.491 102.529 121.542 107.821 119.879C108.066 120.395 105.541 122.054 105.253 122.286C103.868 123.401 102.362 124.557 101.334 126.029C100.607 127.072 99.8605 129.43 101.87 129.49C102.843 129.52 104.283 128.577 105.166 128.272C106.625 127.769 108.128 127.415 109.653 127.185C108.342 128.63 103.896 131.226 104.705 133.629C105.49 135.961 110.029 133.24 111.592 133.24C111.336 134.053 110.692 134.627 110.164 135.262ZM56.533 141.771C53.6259 142.794 50.646 143.375 47.6454 144.036C44.7855 144.665 42.142 145.14 39.2127 144.771C35.1681 144.262 30.6924 142.586 30.1796 137.987C29.5716 132.539 33.4172 127.532 36.7193 123.624C40.738 118.868 45.2507 114.616 50.1413 110.766C55.0265 106.92 60.2992 103.529 65.8234 100.667C70.0259 98.489 74.7722 97.1666 79.2159 95.5324C80.0612 95.2216 82.3995 94.1289 83.1903 95.0343C83.8293 95.7665 82.9595 96.9863 82.6683 97.6661C82.1001 98.9914 82.0219 100.326 81.8753 101.749C81.22 108.103 80.4315 114.456 80.0686 120.838C79.9675 122.617 79.7895 124.478 79.8933 126.258C79.9505 127.243 80.4633 128.499 80.1218 129.462C79.4654 131.312 76.4597 132.537 74.8668 133.363C72.015 134.842 68.9952 135.947 66.1143 137.362C62.9502 138.916 59.8695 140.596 56.533 141.771ZM96.8522 100.479C97.6504 100.369 98.8457 100.152 99.5571 100.669C100.485 101.344 100.242 102.282 99.3847 102.772C98.708 103.158 97.1243 103.264 96.4557 102.913C95.3169 102.316 95.5096 100.664 96.8522 100.479ZM101.272 115.194C100.627 116.269 98.2702 116.974 98.4754 114.968C98.6515 113.251 102.459 113.215 101.272 115.194ZM100.397 84.9196C101.434 85.3215 103.315 85.6654 103.622 86.9996C103.908 88.2416 102.732 88.1593 101.884 87.8176C101.185 87.5371 98.0756 84.8982 100.397 84.9196ZM262.816 132.294C262.211 129.936 262.672 127.326 262.337 124.911C262.013 122.571 261.43 120.42 260.593 118.214C258.74 113.33 256.617 108.934 253.613 104.648C247.956 96.5768 241.392 89.4673 233.466 83.5718C225.641 77.7519 216.977 73.0221 207.798 69.7072C198.065 66.1918 188.268 64.9682 178.004 64.2943C174.939 64.0934 171.877 63.8549 168.829 63.4674C166.601 63.1843 163.809 62.8355 161.607 63.5183C160.223 63.9474 159.45 65.1547 160.957 65.947C162.026 66.5088 163.425 66.5759 164.605 66.7252C163.18 71.2574 160.86 75.8051 157.183 78.9257C153.594 81.9726 148.792 83.017 144.262 83.7897C141.806 84.2085 139.055 84.5325 136.561 84.3519C134.984 84.238 133.753 83.5073 133.117 85.1327C132.675 86.2619 132.466 87.5009 131.884 85.7959C131.196 83.7801 130.858 83.793 128.716 83.2205C124.336 82.0497 119.315 80.9813 115.493 78.4494C111.529 75.8224 110.15 71.5726 107.937 67.6155C107.39 66.6375 105.739 64.6578 106.582 63.5371C107.354 62.5122 109.863 62.6144 111.011 62.5074C112.224 62.3946 113.443 62.3898 114.66 62.3427C115.365 62.3154 116.782 62.6044 116.499 61.5512C116.071 59.9637 111.488 60.1672 110.35 60.1414C108.234 60.0939 106.088 60.1429 103.982 60.3759C93.5412 61.5313 83.0064 63.6676 72.9028 66.5165C53.3003 72.0434 34.315 82.2277 20.0092 96.8997C6.27707 110.983 1.92649 134.42 10.3685 152.402C14.7556 161.748 24.2767 165.587 33.5061 168.688C38.3743 170.323 43.5293 171.603 48.7042 171.294C51.1876 171.146 53.5439 170.477 55.966 169.973C57.0222 169.753 58.2242 169.402 59.3091 169.491C60.1305 169.558 60.9194 170.312 61.6899 169.911C62.2366 169.627 62.4743 168.81 63.1425 168.462C63.9447 168.045 64.9174 167.894 65.7839 167.683C68.1923 167.098 70.5243 166.149 72.8784 165.371C75.3127 164.565 77.61 163.529 79.9457 162.481C81.1252 161.951 83.8544 159.799 84.623 161.372C84.9733 162.091 84.8242 163.476 84.9095 164.229C85.059 165.546 85.2347 166.86 85.4266 168.172C85.8497 171.06 86.3562 173.935 86.8752 176.807C87.8122 181.989 89.0193 186.95 91.0379 191.825C92.6497 195.717 94.0647 200.129 97.0575 203.225C98.3639 204.577 100.147 205.185 102.021 204.76C104.152 204.277 105.213 202.34 106.507 200.773C109.354 197.326 114.054 194.685 118.394 193.735C123.709 192.57 128.886 194.273 133.959 195.721C139.325 197.252 144.788 198.71 150.056 200.551C154.964 202.266 160.263 204.799 165.586 204.578C170.228 204.386 174.564 200.606 177.911 197.725C181.274 194.831 185.478 190.594 190.312 190.935C192.713 191.104 194.901 192.263 197.239 192.734C199.806 193.251 202.538 193.324 205.148 193.517C208.388 193.756 215.638 192.911 216.837 189.01C217.015 188.432 217.016 187.24 216.252 187.009C215.549 186.796 215.191 187.618 214.525 187.58C213.171 187.504 212.113 185.141 211.369 184.227C208.367 180.535 204.249 177.781 200.88 174.445C197.077 170.679 193.829 166.117 190.963 161.617C192.259 161.28 193.657 161.839 194.911 162.105C196.435 162.428 197.919 162.818 199.421 163.232C201.076 163.688 202.755 164.001 204.434 164.349C205.688 164.608 207.351 164.686 208.482 165.315C209.47 165.864 210.021 166.454 211.247 166.613C212.494 166.775 213.773 166.639 215.026 166.63C218.413 166.607 221.794 166.544 225.165 166.186C237.079 164.92 249.707 159.878 256.871 149.871C258.819 147.15 260.389 144.134 261.381 140.935C262.155 138.437 263.49 134.917 262.816 132.294Z" fill="black"/>
<path fill-rule="evenodd" clip-rule="evenodd" d="M151.078 17.0026C154.209 17.0469 157.144 17.9759 160.061 19.0319C162.626 19.9604 165.361 20.8195 167.435 22.6729C171.167 26.0069 172.138 31.5273 172.749 36.2502C173.511 42.1437 170.976 47.0884 168.843 52.4203C166.848 57.407 163.186 61.4468 158.834 64.5251C156.554 66.1376 154.033 67.1108 151.397 67.9644C148.718 68.8312 146.124 69.9922 143.259 69.9878C138.907 69.9815 133.336 67.9134 131.482 63.6235C130.638 61.6703 131.46 61.3197 133.149 62.3812C135.599 63.9213 137.961 65.5833 140.824 66.2665C146.376 67.5919 153.026 65.5386 157.895 62.8294C162.762 60.121 166.029 56.0524 168.213 50.9862C170.416 45.8753 171.272 40.839 170.422 35.329C169.702 30.6597 168.27 26.3945 164.064 23.8598C154.986 18.3886 142.755 18.8294 134.682 25.9397C133.574 26.9144 132.48 27.8629 131.339 28.7937C130.614 29.3853 129.76 30.0951 129.865 31.1182C129.955 31.9943 131.822 35.3723 129.574 34.3347C127.752 33.4934 126.761 31.8487 124.554 31.6451C122.204 31.4282 119.401 33.2344 118.698 35.5075C118.028 37.6765 119.223 40.6439 121.096 41.888C122.256 42.6584 123.532 42.5395 124.848 42.5084C125.502 42.4929 127.321 42.2804 127.754 42.9718C128.519 44.1945 125.819 45.4796 124.948 45.75C122.828 46.4081 120.322 45.6337 119.103 43.74C117.864 41.8149 117.017 39.5868 116.846 37.2933C116.683 35.0959 117.181 32.8711 118.477 31.0669C119.855 29.1481 122.664 26.9968 125.182 27.6634C126.275 27.9527 127.153 29.0827 128.226 29.2973C128.903 29.4326 128.618 29.5294 129.179 29.0272C129.535 28.7087 129.871 28.1208 130.2 27.7432C132.09 25.572 133.959 23.2549 136.272 21.5171C140.42 18.4012 145.933 16.9294 151.078 17.0026ZM139.609 60.0487C140.099 58.8981 141 60.9506 141.267 61.2938C141.794 61.9728 143.034 62.501 142.981 63.5024C142.893 65.1556 140.641 64.8489 139.89 63.9865C139.035 63.0047 139.124 61.185 139.609 60.0487ZM155.608 52.2213C156.823 54.1157 155.342 56.1606 154.382 57.8373C153.463 59.4404 152.61 61.2527 151.541 62.7598C149.766 65.2622 145.905 62.5552 145.79 59.9834C145.702 58.0147 147.096 58.8717 147.991 59.607C148.911 60.3643 149.348 60.5529 150.313 59.7257C152.255 58.061 153.127 55.2774 154.469 53.1698C154.736 52.7519 155.218 52.5006 155.608 52.2213ZM159.071 52.8304C159.385 53.7466 158.727 56.1741 160.554 55.9314C161.564 55.7974 161.78 54.3479 162.31 53.7152C164.095 51.5885 163.548 55.6109 163.081 56.6176C162.053 58.8364 159.176 60.3652 157.749 57.5504C157.219 56.5032 157.221 55.1817 157.491 54.0561C157.637 53.4431 158.493 51.1386 159.071 52.8304ZM142.779 48.4915C142.617 49.5604 141.613 51.6901 142.839 52.4548C143.918 53.1279 145.797 51.6662 146.627 51.0558C147.49 50.4216 149.447 48.6021 149.523 50.8663C149.563 52.0205 148.408 53.4052 147.584 54.0702C145.826 55.4882 142.173 56.7601 140.878 54.0911C140.172 52.6372 140.558 50.5673 141.025 49.1022C141.403 47.9148 143.17 45.9096 142.779 48.4915ZM165.835 42.6392C166.55 43.4704 168.246 45.3327 167.324 46.5164C166.246 47.9 164.495 45.3614 163.804 44.6549C163.182 44.0184 161.873 42.2059 162.431 41.2445C163.355 39.6536 165.207 41.9094 165.835 42.6392ZM154.591 39.06C156.929 40.5843 153.855 41.6818 152.523 41.8183C150.911 41.9827 148.85 42.0919 147.37 41.3005C145.271 40.1786 145.97 38.484 148.005 38.0783C150.09 37.6627 152.776 37.8769 154.591 39.06ZM124.192 34.2078C125.912 34.5426 127.876 34.9783 128.462 36.8541C129.066 38.7927 128.197 39.436 126.441 38.9996C124.816 38.5957 122.389 38.1892 121.47 36.6009C120.372 34.7033 122.598 33.8977 124.192 34.2078Z" fill="black"/>
<path fill-rule="evenodd" clip-rule="evenodd" d="M29.5767 75.8633C28.9996 77.7279 26.0789 78.9647 24.6225 80.0981C19.5279 84.0638 14.5497 88.1927 9.94397 92.7187C7.55343 95.0679 5.744 97.9094 3.67096 100.522C3.16516 101.16 2.26913 102.588 1.2771 102.454C0.188709 102.307 -0.0313319 100.431 0.00337253 99.6123C0.122254 96.819 2.67192 94.1212 4.49021 92.1978C6.53555 90.035 8.7223 87.9273 10.9556 85.9579C13.4144 83.7899 16.0826 81.9263 18.8017 80.1018C21.4717 78.3103 24.0317 76.2405 26.8085 74.6177C28.1165 73.8534 30.2885 73.5626 29.5767 75.8633ZM207.659 58.1547C209.785 58.2218 211.86 58.9197 213.866 59.5676C218.277 60.993 222.479 62.9704 226.622 65.037C233.886 68.6596 240.876 73.0427 247.283 78.0263C248.622 79.0677 249.995 79.9117 251.452 80.7634C252.384 81.309 253.713 81.9746 254.072 83.0865C254.984 85.913 250.38 83.0762 249.727 82.6703L248.808 82.1C235.175 73.6459 221.558 65.4318 206.137 60.5835C205.316 60.3252 205.06 59.592 205.491 58.8652C205.958 58.0776 206.869 58.1299 207.659 58.1547ZM28.9563 64.0702C28.8577 64.9308 27.8835 65.1266 27.2265 65.4028C24.7748 66.4332 22.2621 67.3119 19.8171 68.3594C15.2792 70.3034 11.1119 73.1247 6.37535 74.6001C5.29294 74.9378 5.13323 73.8448 5.42301 73.101C5.74577 72.2708 6.71516 71.6879 7.41626 71.2078C9.43878 69.8214 11.7326 68.8247 13.9785 67.8618C16.2052 66.9063 18.4979 66.1837 20.7809 65.3828C22.9028 64.6382 25.3655 63.2526 27.6441 63.1503L27.7437 63.1455C28.4689 63.1088 29.0711 63.0598 28.9563 64.0702ZM211.529 50.9962C209.361 50.386 211.41 49.0127 212.698 49.1092C214.135 49.217 215.525 49.896 216.888 50.3056C221.055 51.5576 224.918 52.9269 228.812 54.8704C229.392 55.1605 231.95 56.536 230.258 57.1451C229.085 57.5671 226.347 55.7565 225.34 55.3222C220.916 53.4133 216.161 52.2996 211.529 50.9962Z" fill="black"/>
<path fill-rule="evenodd" clip-rule="evenodd" d="M125.104 55.4415C125.375 54.6459 128.727 45.9491 127.415 45.6869C126.026 45.4088 124.168 50.4546 123.765 51.3662C122.276 54.7332 121.395 58.3459 120.704 61.9574C120.223 64.472 119.8 67.0482 119.969 69.6192C120.098 71.5949 120.914 71.894 122.258 73.1047C122.258 67.1034 123.169 61.1216 125.104 55.4415Z" fill="black"/>
<path d="M124.164 110.583C126.341 107.97 128.633 105.777 130.11 102.31C130.176 102.155 130.532 101.343 130.532 101.961C130.532 103.205 130.515 104.436 130.41 105.677C130.09 109.433 130.165 113.202 130.165 116.97C130.165 117.515 130.156 117.507 129.661 117.507M129.661 117.507C128.905 117.507 128.165 117.705 127.416 117.797C126.691 117.886 126.022 118.16 125.286 118.16C124.989 118.16 124.848 118.145 125.239 118.16C126.635 118.213 128.276 117.882 129.661 117.507ZM129.661 117.507C131.099 117.117 132.728 117.637 134.206 117.637" stroke="white" stroke-width="3" stroke-linecap="round" stroke-linejoin="round"/>
<path d="M137.577 97.8252C131.875 95.6672 124.148 94.9999 120 97.9999C115.852 101 113.456 104.61 113.037 109.385C112.617 114.161 114.844 119.585 119.422 123.043C124 126.5 130.813 127.49 135.406 125.266C140 123.043 142.979 121.019 144.5 117C146.188 112.539 145.768 108.276 143.187 103.947" stroke="white" stroke-width="2" stroke-linecap="round" stroke-linejoin="round"/>
<path d="M3.136 5.156L1.432 5.156L1.432 4.232C1.92 4.232 2.292 4.188 2.548 4.1C2.804 4.012 2.98 3.872 3.076 3.68C3.172 3.48 3.22 3.2 3.22 2.84L4.216 2.84L4.216 11L3.136 11L3.136 5.156ZM14.4978 5.468L14.4978 11.108C14.4978 11.98 14.2458 12.644 13.7418 13.1C13.2938 13.5 12.6898 13.7 11.9298 13.7C11.1298 13.7 10.5058 13.508 10.0578 13.124C9.64975 12.78 9.44175 12.304 9.43375 11.696L10.4898 11.696C10.5298 12.448 11.0058 12.824 11.9178 12.824C12.4058 12.824 12.7818 12.676 13.0458 12.38C13.3178 12.092 13.4538 11.644 13.4538 11.036L13.4538 10.004C13.2858 10.356 13.0378 10.636 12.7098 10.844C12.3818 11.044 11.9898 11.144 11.5338 11.144C10.8378 11.144 10.3138 10.932 9.96175 10.508C9.60975 10.076 9.43375 9.496 9.43375 8.768L9.43375 5.468L10.4778 5.468L10.4778 8.552C10.4778 9.088 10.5818 9.5 10.7898 9.788C11.0058 10.068 11.3698 10.208 11.8818 10.208C12.3858 10.208 12.7738 10.028 13.0458 9.668C13.3178 9.3 13.4538 8.848 13.4538 8.312L13.4538 5.468L14.4978 5.468ZM21.2103 7.916C21.2103 8.068 21.1983 8.276 21.1743 8.54L16.8903 8.54C16.8983 9.068 17.0583 9.484 17.3703 9.788C17.6823 10.084 18.1023 10.232 18.6303 10.232C18.9903 10.232 19.2943 10.164 19.5423 10.028C19.7983 9.884 19.9823 9.68 20.0943 9.416L21.1383 9.416C21.0423 9.928 20.7623 10.344 20.2983 10.664C19.8343 10.984 19.2783 11.144 18.6303 11.144C17.7823 11.144 17.1063 10.884 16.6023 10.364C16.1063 9.836 15.8583 9.124 15.8583 8.228C15.8583 7.644 15.9703 7.136 16.1943 6.704C16.4183 6.264 16.7343 5.924 17.1423 5.684C17.5583 5.444 18.0383 5.324 18.5823 5.324C19.1023 5.324 19.5583 5.436 19.9503 5.66C20.3503 5.876 20.6583 6.18 20.8743 6.572C21.0983 6.964 21.2103 7.412 21.2103 7.916ZM20.1783 7.736C20.1783 7.248 20.0343 6.864 19.7463 6.584C19.4663 6.304 19.0743 6.164 18.5703 6.164C18.0743 6.164 17.6743 6.308 17.3703 6.596C17.0743 6.884 16.9143 7.264 16.8903 7.736L20.1783 7.736ZM24.9459 11.144C24.3779 11.144 23.8859 11.02 23.4699 10.772C23.0539 10.516 22.7379 10.168 22.5219 9.728C22.3139 9.288 22.2099 8.792 22.2099 8.24C22.2099 7.696 22.3219 7.204 22.5459 6.764C22.7699 6.316 23.0899 5.964 23.5059 5.708C23.9219 5.452 24.4099 5.324 24.9699 5.324C25.4019 5.324 25.7899 5.424 26.1339 5.624C26.4779 5.824 26.7379 6.096 26.9139 6.44L26.9139 5.468L27.9459 5.468L27.9459 11L26.9139 11L26.9139 10.028C26.7379 10.364 26.4699 10.636 26.1099 10.844C25.7499 11.044 25.3619 11.144 24.9459 11.144ZM25.0899 10.208C25.6739 10.208 26.1299 10.02 26.4579 9.644C26.7939 9.26 26.9619 8.792 26.9619 8.24C26.9619 7.68 26.7939 7.212 26.4579 6.836C26.1299 6.452 25.6739 6.26 25.0899 6.26C24.5299 6.26 24.0819 6.448 23.7459 6.824C23.4099 7.192 23.2419 7.664 23.2419 8.24C23.2419 8.816 23.4099 9.288 23.7459 9.656C24.0819 10.024 24.5299 10.208 25.0899 10.208ZM29.7438 5.468L30.7878 5.468L30.7878 6.728C30.8918 6.288 31.0958 5.956 31.3998 5.732C31.7038 5.5 32.0398 5.384 32.4078 5.384C32.6238 5.384 32.7918 5.4 32.9118 5.432L32.9118 6.392C32.7918 6.368 32.6198 6.356 32.3958 6.356C31.8758 6.356 31.4758 6.564 31.1958 6.98C30.9238 7.396 30.7878 7.928 30.7878 8.576L30.7878 11L29.7438 11L29.7438 5.468ZM37.1148 5.468L38.1588 5.468L38.1588 6.476C38.2708 6.148 38.4708 5.876 38.7588 5.66C39.0468 5.436 39.3988 5.324 39.8148 5.324C40.2868 5.324 40.6708 5.428 40.9668 5.636C41.2708 5.844 41.4788 6.136 41.5908 6.512C41.7188 6.168 41.9428 5.884 42.2628 5.66C42.5828 5.436 42.9508 5.324 43.3668 5.324C44.0708 5.324 44.5788 5.52 44.8908 5.912C45.2028 6.304 45.3588 6.832 45.3588 7.496L45.3588 11L44.3148 11L44.3148 7.7C44.3148 6.716 43.9148 6.224 43.1148 6.224C42.6908 6.224 42.3588 6.38 42.1188 6.692C41.8788 6.996 41.7588 7.472 41.7588 8.12L41.7588 11L40.7148 11L40.7148 7.772C40.7148 7.212 40.6108 6.816 40.4028 6.584C40.1948 6.344 39.9028 6.224 39.5268 6.224C39.0948 6.224 38.7588 6.384 38.5188 6.704C38.2788 7.016 38.1588 7.488 38.1588 8.12L38.1588 11L37.1148 11L37.1148 5.468ZM49.5352 11.144C48.9512 11.144 48.4392 11.016 47.9992 10.76C47.5672 10.504 47.2352 10.156 47.0032 9.716C46.7712 9.268 46.6552 8.772 46.6552 8.228C46.6552 7.692 46.7712 7.204 47.0032 6.764C47.2352 6.316 47.5672 5.964 47.9992 5.708C48.4392 5.452 48.9512 5.324 49.5352 5.324C50.1192 5.324 50.6272 5.452 51.0592 5.708C51.4912 5.964 51.8232 6.316 52.0552 6.764C52.2952 7.204 52.4152 7.692 52.4152 8.228C52.4152 8.772 52.2992 9.268 52.0672 9.716C51.8352 10.156 51.4992 10.504 51.0592 10.76C50.6272 11.016 50.1192 11.144 49.5352 11.144ZM49.5352 10.208C50.1032 10.208 50.5512 10.024 50.8792 9.656C51.2072 9.28 51.3712 8.804 51.3712 8.228C51.3712 7.66 51.2072 7.192 50.8792 6.824C50.5512 6.448 50.1032 6.26 49.5352 6.26C48.9672 6.26 48.5152 6.448 48.1792 6.824C47.8512 7.192 47.6872 7.664 47.6872 8.24C47.6872 8.808 47.8512 9.28 48.1792 9.656C48.5152 10.024 48.9672 10.208 49.5352 10.208ZM53.7672 5.468L54.8112 5.468L54.8112 6.488C54.9632 6.128 55.2032 5.844 55.5312 5.636C55.8672 5.428 56.2712 5.324 56.7432 5.324C57.4232 5.324 57.9352 5.516 58.2792 5.9C58.6312 6.284 58.8072 6.848 58.8072 7.592L58.8072 11L57.7632 11L57.7632 8.048C57.7632 7.424 57.6512 6.964 57.4272 6.668C57.2112 6.372 56.8592 6.224 56.3712 6.224C55.8672 6.224 55.4792 6.388 55.2072 6.716C54.9432 7.044 54.8112 7.496 54.8112 8.072L54.8112 11L53.7672 11L53.7672 5.468ZM65.4603 7.916C65.4603 8.068 65.4483 8.276 65.4243 8.54L61.1403 8.54C61.1483 9.068 61.3083 9.484 61.6203 9.788C61.9323 10.084 62.3523 10.232 62.8803 10.232C63.2403 10.232 63.5443 10.164 63.7923 10.028C64.0483 9.884 64.2323 9.68 64.3443 9.416L65.3883 9.416C65.2923 9.928 65.0123 10.344 64.5483 10.664C64.0843 10.984 63.5283 11.144 62.8803 11.144C62.0323 11.144 61.3563 10.884 60.8523 10.364C60.3563 9.836 60.1083 9.124 60.1083 8.228C60.1083 7.644 60.2203 7.136 60.4443 6.704C60.6683 6.264 60.9843 5.924 61.3923 5.684C61.8083 5.444 62.2883 5.324 62.8323 5.324C63.3523 5.324 63.8083 5.436 64.2003 5.66C64.6003 5.876 64.9083 6.18 65.1243 6.572C65.3483 6.964 65.4603 7.412 65.4603 7.916ZM64.4283 7.736C64.4283 7.248 64.2843 6.864 63.9963 6.584C63.7163 6.304 63.3243 6.164 62.8203 6.164C62.3243 6.164 61.9243 6.308 61.6203 6.596C61.3243 6.884 61.1643 7.264 61.1403 7.736L64.4283 7.736ZM71.8142 5.468L71.8142 11.108C71.8142 11.98 71.5622 12.644 71.0582 13.1C70.6102 13.5 70.0062 13.7 69.2462 13.7C68.4462 13.7 67.8222 13.508 67.3742 13.124C66.9662 12.78 66.7582 12.304 66.7502 11.696L67.8062 11.696C67.8462 12.448 68.3222 12.824 69.2342 12.824C69.7222 12.824 70.0982 12.676 70.3622 12.38C70.6342 12.092 70.7702 11.644 70.7702 11.036L70.7702 10.004C70.6022 10.356 70.3542 10.636 70.0262 10.844C69.6982 11.044 69.3062 11.144 68.8502 11.144C68.1542 11.144 67.6302 10.932 67.2782 10.508C66.9262 10.076 66.7502 9.496 66.7502 8.768L66.7502 5.468L67.7942 5.468L67.7942 8.552C67.7942 9.088 67.8982 9.5 68.1062 9.788C68.3222 10.068 68.6862 10.208 69.1982 10.208C69.7022 10.208 70.0902 10.028 70.3622 9.668C70.6342 9.3 70.7702 8.848 70.7702 8.312L70.7702 5.468L71.8142 5.468ZM4.972 19.324C5.492 19.324 5.956 19.448 6.364 19.696C6.772 19.936 7.088 20.28 7.312 20.728C7.536 21.168 7.648 21.672 7.648 22.24C7.648 22.8 7.532 23.3 7.3 23.74C7.068 24.18 6.744 24.524 6.328 24.772C5.912 25.02 5.44 25.144 4.912 25.144C4.488 25.144 4.096 25.044 3.736 24.844C3.384 24.644 3.12 24.372 2.944 24.028L2.944 25L1.9 25L1.9 16.6L2.944 16.6L2.944 20.44C3.12 20.096 3.388 19.824 3.748 19.624C4.116 19.424 4.524 19.324 4.972 19.324ZM4.768 24.208C5.304 24.208 5.744 24.024 6.088 23.656C6.432 23.288 6.604 22.816 6.604 22.24C6.604 21.864 6.524 21.524 6.364 21.22C6.212 20.916 5.996 20.68 5.716 20.512C5.436 20.344 5.12 20.26 4.768 20.26C4.216 20.26 3.764 20.444 3.412 20.812C3.068 21.18 2.896 21.656 2.896 22.24C2.896 22.816 3.068 23.288 3.412 23.656C3.764 24.024 4.216 24.208 4.768 24.208ZM11.2818 25.144C10.7138 25.144 10.2218 25.02 9.80584 24.772C9.38984 24.516 9.07384 24.168 8.85784 23.728C8.64984 23.288 8.54584 22.792 8.54584 22.24C8.54584 21.696 8.65784 21.204 8.88184 20.764C9.10584 20.316 9.42584 19.964 9.84184 19.708C10.2578 19.452 10.7458 19.324 11.3058 19.324C11.7378 19.324 12.1258 19.424 12.4698 19.624C12.8138 19.824 13.0738 20.096 13.2498 20.44L13.2498 19.468L14.2818 19.468L14.2818 25L13.2498 25L13.2498 24.028C13.0738 24.364 12.8058 24.636 12.4458 24.844C12.0858 25.044 11.6978 25.144 11.2818 25.144ZM11.4258 24.208C12.0098 24.208 12.4658 24.02 12.7938 23.644C13.1298 23.26 13.2978 22.792 13.2978 22.24C13.2978 21.68 13.1298 21.212 12.7938 20.836C12.4658 20.452 12.0098 20.26 11.4258 20.26C10.8658 20.26 10.4178 20.448 10.0818 20.824C9.74584 21.192 9.57784 21.664 9.57784 22.24C9.57784 22.816 9.74584 23.288 10.0818 23.656C10.4178 24.024 10.8658 24.208 11.4258 24.208ZM18.3837 25.144C17.8237 25.144 17.3357 25.024 16.9197 24.784C16.5117 24.536 16.1957 24.192 15.9717 23.752C15.7477 23.312 15.6357 22.808 15.6357 22.24C15.6357 21.672 15.7477 21.168 15.9717 20.728C16.1957 20.288 16.5117 19.948 16.9197 19.708C17.3357 19.46 17.8237 19.336 18.3837 19.336C19.1277 19.336 19.7277 19.524 20.1837 19.9C20.6397 20.268 20.8997 20.764 20.9637 21.388L19.9197 21.388C19.8477 21.02 19.6797 20.744 19.4157 20.56C19.1597 20.368 18.8157 20.272 18.3837 20.272C17.8477 20.272 17.4277 20.448 17.1237 20.8C16.8197 21.144 16.6677 21.624 16.6677 22.24C16.6677 22.856 16.8197 23.34 17.1237 23.692C17.4277 24.036 17.8477 24.208 18.3837 24.208C18.8157 24.208 19.1597 24.116 19.4157 23.932C19.6797 23.748 19.8477 23.48 19.9197 23.128L20.9637 23.128C20.8997 23.744 20.6397 24.236 20.1837 24.604C19.7277 24.964 19.1277 25.144 18.3837 25.144ZM24.4621 22.144L27.1501 25L25.7701 25L23.3581 22.396L23.3581 25L22.3141 25L22.3141 16.6L23.3581 16.6L23.3581 21.988L25.8061 19.468L27.1501 19.468L24.4621 22.144ZM36.6998 19.468L36.6998 24.856C36.6998 25.912 36.3798 26.688 35.7398 27.184C35.2758 27.528 34.6398 27.7 33.8318 27.7C33.4478 27.7 33.0838 27.652 32.7398 27.556C32.4038 27.468 32.1158 27.336 31.8758 27.16C31.6198 26.984 31.4198 26.768 31.2758 26.512C31.1318 26.264 31.0558 25.992 31.0478 25.696L32.1398 25.696C32.1878 26.032 32.3518 26.304 32.6318 26.512C32.9198 26.72 33.3198 26.824 33.8318 26.824C34.4398 26.824 34.8958 26.668 35.1998 26.356C35.5118 26.052 35.6678 25.576 35.6678 24.928L35.6678 24.028C35.4998 24.372 35.2318 24.644 34.8638 24.844C34.4958 25.044 34.1078 25.144 33.6998 25.144C33.1478 25.144 32.6638 25.016 32.2478 24.76C31.8398 24.504 31.5238 24.156 31.2998 23.716C31.0758 23.276 30.9638 22.784 30.9638 22.24C30.9638 21.696 31.0798 21.204 31.3118 20.764C31.5438 20.316 31.8678 19.964 32.2838 19.708C32.7078 19.452 33.1878 19.324 33.7238 19.324C34.1478 19.324 34.5318 19.424 34.8758 19.624C35.2278 19.824 35.4918 20.096 35.6678 20.44L35.6678 19.468L36.6998 19.468ZM33.8438 24.208C34.2198 24.208 34.5478 24.12 34.8278 23.944C35.1158 23.768 35.3358 23.532 35.4878 23.236C35.6398 22.932 35.7158 22.6 35.7158 22.24C35.7158 21.872 35.6398 21.54 35.4878 21.244C35.3358 20.94 35.1158 20.7 34.8278 20.524C34.5478 20.348 34.2198 20.26 33.8438 20.26C33.2998 20.26 32.8558 20.448 32.5118 20.824C32.1678 21.192 31.9958 21.664 31.9958 22.24C31.9958 22.808 32.1678 23.28 32.5118 23.656C32.8558 24.024 33.2998 24.208 33.8438 24.208ZM40.5377 25.144C39.8977 25.144 39.3857 24.952 39.0017 24.568C38.6257 24.176 38.4377 23.612 38.4377 22.876L38.4377 19.468L39.4817 19.468L39.4817 22.624C39.4817 23.704 39.9297 24.244 40.8257 24.244C41.3537 24.244 41.7457 24.076 42.0017 23.74C42.2657 23.396 42.3977 22.98 42.3977 22.492L42.3977 19.468L43.4417 19.468L43.4417 25L42.3977 25L42.3977 23.992C42.2457 24.344 42.0057 24.624 41.6777 24.832C41.3577 25.04 40.9777 25.144 40.5377 25.144ZM47.5279 25.144C46.9599 25.144 46.4679 25.02 46.0519 24.772C45.6359 24.516 45.3199 24.168 45.1039 23.728C44.8959 23.288 44.7919 22.792 44.7919 22.24C44.7919 21.696 44.9039 21.204 45.1279 20.764C45.3519 20.316 45.6719 19.964 46.0879 19.708C46.5039 19.452 46.9919 19.324 47.5519 19.324C47.9839 19.324 48.3719 19.424 48.7159 19.624C49.0599 19.824 49.3199 20.096 49.4959 20.44L49.4959 19.468L50.5279 19.468L50.5279 25L49.4959 25L49.4959 24.028C49.3199 24.364 49.0519 24.636 48.6919 24.844C48.3319 25.044 47.9439 25.144 47.5279 25.144ZM47.6719 24.208C48.2559 24.208 48.7119 24.02 49.0399 23.644C49.3759 23.26 49.5439 22.792 49.5439 22.24C49.5439 21.68 49.3759 21.212 49.0399 20.836C48.7119 20.452 48.2559 20.26 47.6719 20.26C47.1119 20.26 46.6639 20.448 46.3279 20.824C45.9919 21.192 45.8239 21.664 45.8239 22.24C45.8239 22.816 45.9919 23.288 46.3279 23.656C46.6639 24.024 47.1119 24.208 47.6719 24.208ZM52.3258 19.468L53.3698 19.468L53.3698 20.728C53.4738 20.288 53.6778 19.956 53.9818 19.732C54.2858 19.5 54.6218 19.384 54.9898 19.384C55.2058 19.384 55.3738 19.4 55.4938 19.432L55.4938 20.392C55.3738 20.368 55.2018 20.356 54.9778 20.356C54.4578 20.356 54.0578 20.564 53.7778 20.98C53.5058 21.396 53.3698 21.928 53.3698 22.576L53.3698 25L52.3258 25L52.3258 19.468ZM58.7193 25.144C58.1513 25.144 57.6593 25.02 57.2433 24.772C56.8273 24.516 56.5113 24.168 56.2953 23.728C56.0873 23.288 55.9833 22.792 55.9833 22.24C55.9833 21.696 56.0953 21.204 56.3193 20.764C56.5433 20.316 56.8633 19.964 57.2793 19.708C57.6953 19.452 58.1833 19.324 58.7433 19.324C59.1753 19.324 59.5633 19.424 59.9073 19.624C60.2513 19.824 60.5113 20.096 60.6873 20.44L60.6873 19.468L61.7193 19.468L61.7193 25L60.6873 25L60.6873 24.028C60.5113 24.364 60.2433 24.636 59.8833 24.844C59.5233 25.044 59.1353 25.144 58.7193 25.144ZM58.8633 24.208C59.4473 24.208 59.9033 24.02 60.2313 23.644C60.5673 23.26 60.7353 22.792 60.7353 22.24C60.7353 21.68 60.5673 21.212 60.2313 20.836C59.9033 20.452 59.4473 20.26 58.8633 20.26C58.3033 20.26 57.8553 20.448 57.5193 20.824C57.1833 21.192 57.0153 21.664 57.0153 22.24C57.0153 22.816 57.1833 23.288 57.5193 23.656C57.8553 24.024 58.3033 24.208 58.8633 24.208ZM63.5172 19.468L64.5612 19.468L64.5612 20.488C64.7132 20.128 64.9532 19.844 65.2812 19.636C65.6172 19.428 66.0212 19.324 66.4932 19.324C67.1732 19.324 67.6852 19.516 68.0292 19.9C68.3812 20.284 68.5572 20.848 68.5572 21.592L68.5572 25L67.5132 25L67.5132 22.048C67.5132 21.424 67.4012 20.964 67.1772 20.668C66.9612 20.372 66.6092 20.224 66.1212 20.224C65.6172 20.224 65.2292 20.388 64.9572 20.716C64.6932 21.044 64.5612 21.496 64.5612 22.072L64.5612 25L63.5172 25L63.5172 19.468ZM72.466 24.124C72.754 24.124 72.986 24.104 73.162 24.064L73.162 24.988C72.922 25.044 72.614 25.072 72.238 25.072C71.758 25.072 71.354 24.952 71.026 24.712C70.698 24.464 70.534 23.948 70.534 23.164L70.534 20.344L69.538 20.344L69.538 19.468L70.534 19.468L70.534 17.716L71.578 17.716L71.578 19.468L72.97 19.468L72.97 20.344L71.578 20.344L71.578 22.936C71.578 23.272 71.614 23.528 71.686 23.704C71.758 23.872 71.854 23.984 71.974 24.04C72.102 24.096 72.266 24.124 72.466 24.124ZM79.265 21.916C79.265 22.068 79.253 22.276 79.229 22.54L74.945 22.54C74.953 23.068 75.113 23.484 75.425 23.788C75.737 24.084 76.157 24.232 76.685 24.232C77.045 24.232 77.349 24.164 77.597 24.028C77.853 23.884 78.037 23.68 78.149 23.416L79.193 23.416C79.097 23.928 78.817 24.344 78.353 24.664C77.889 24.984 77.333 25.144 76.685 25.144C75.837 25.144 75.161 24.884 74.657 24.364C74.161 23.836 73.913 23.124 73.913 22.228C73.913 21.644 74.025 21.136 74.249 20.704C74.473 20.264 74.789 19.924 75.197 19.684C75.613 19.444 76.093 19.324 76.637 19.324C77.157 19.324 77.613 19.436 78.005 19.66C78.405 19.876 78.713 20.18 78.929 20.572C79.153 20.964 79.265 21.412 79.265 21.916ZM78.233 21.736C78.233 21.248 78.089 20.864 77.801 20.584C77.521 20.304 77.129 20.164 76.625 20.164C76.129 20.164 75.729 20.308 75.425 20.596C75.129 20.884 74.969 21.264 74.945 21.736L78.233 21.736ZM85.5932 21.916C85.5932 22.068 85.5812 22.276 85.5572 22.54L81.2732 22.54C81.2812 23.068 81.4412 23.484 81.7532 23.788C82.0652 24.084 82.4852 24.232 83.0132 24.232C83.3732 24.232 83.6772 24.164 83.9252 24.028C84.1812 23.884 84.3652 23.68 84.4772 23.416L85.5212 23.416C85.4252 23.928 85.1452 24.344 84.6812 24.664C84.2172 24.984 83.6612 25.144 83.0132 25.144C82.1652 25.144 81.4892 24.884 80.9852 24.364C80.4892 23.836 80.2412 23.124 80.2412 22.228C80.2412 21.644 80.3532 21.136 80.5772 20.704C80.8012 20.264 81.1172 19.924 81.5252 19.684C81.9412 19.444 82.4212 19.324 82.9652 19.324C83.4852 19.324 83.9412 19.436 84.3332 19.66C84.7332 19.876 85.0412 20.18 85.2572 20.572C85.4812 20.964 85.5932 21.412 85.5932 21.916ZM84.5612 21.736C84.5612 21.248 84.4172 20.864 84.1292 20.584C83.8492 20.304 83.4572 20.164 82.9532 20.164C82.4572 20.164 82.0572 20.308 81.7532 20.596C81.4572 20.884 81.2972 21.264 81.2732 21.736L84.5612 21.736ZM92.3287 16.6L92.3287 25L91.2967 25L91.2967 24.028C91.1207 24.364 90.8527 24.636 90.4927 24.844C90.1327 25.044 89.7447 25.144 89.3287 25.144C88.7607 25.144 88.2687 25.02 87.8527 24.772C87.4367 24.516 87.1207 24.168 86.9047 23.728C86.6967 23.288 86.5927 22.792 86.5927 22.24C86.5927 21.696 86.7047 21.204 86.9287 20.764C87.1527 20.316 87.4727 19.964 87.8887 19.708C88.3047 19.452 88.7927 19.324 89.3527 19.324C89.7847 19.324 90.1727 19.424 90.5167 19.624C90.8607 19.824 91.1207 20.096 91.2967 20.44L91.2967 19.864L91.2847 19.864L91.2847 16.6L92.3287 16.6ZM89.4727 24.208C90.0567 24.208 90.5127 24.02 90.8407 23.644C91.1767 23.26 91.3447 22.792 91.3447 22.24C91.3447 21.68 91.1767 21.212 90.8407 20.836C90.5127 20.452 90.0567 20.26 89.4727 20.26C88.9127 20.26 88.4647 20.448 88.1287 20.824C87.7927 21.192 87.6247 21.664 87.6247 22.24C87.6247 22.816 87.7927 23.288 88.1287 23.656C88.4647 24.024 88.9127 24.208 89.4727 24.208ZM4.336 39.144C3.752 39.144 3.24 39.016 2.8 38.76C2.368 38.504 2.036 38.156 1.804 37.716C1.572 37.268 1.456 36.772 1.456 36.228C1.456 35.692 1.572 35.204 1.804 34.764C2.036 34.316 2.368 33.964 2.8 33.708C3.24 33.452 3.752 33.324 4.336 33.324C4.92 33.324 5.428 33.452 5.86 33.708C6.292 33.964 6.624 34.316 6.856 34.764C7.096 35.204 7.216 35.692 7.216 36.228C7.216 36.772 7.1 37.268 6.868 37.716C6.636 38.156 6.3 38.504 5.86 38.76C5.428 39.016 4.92 39.144 4.336 39.144ZM4.336 38.208C4.904 38.208 5.352 38.024 5.68 37.656C6.008 37.28 6.172 36.804 6.172 36.228C6.172 35.66 6.008 35.192 5.68 34.824C5.352 34.448 4.904 34.26 4.336 34.26C3.768 34.26 3.316 34.448 2.98 34.824C2.652 35.192 2.488 35.664 2.488 36.24C2.488 36.808 2.652 37.28 2.98 37.656C3.316 38.024 3.768 38.208 4.336 38.208ZM8.56797 33.468L9.61197 33.468L9.61197 34.488C9.76397 34.128 10.004 33.844 10.332 33.636C10.668 33.428 11.072 33.324 11.544 33.324C12.224 33.324 12.736 33.516 13.08 33.9C13.432 34.284 13.608 34.848 13.608 35.592L13.608 39L12.564 39L12.564 36.048C12.564 35.424 12.452 34.964 12.228 34.668C12.012 34.372 11.66 34.224 11.172 34.224C10.668 34.224 10.28 34.388 10.008 34.716C9.74397 35.044 9.61197 35.496 9.61197 36.072L9.61197 39L8.56797 39L8.56797 33.468ZM20.6803 39.144C20.1123 39.144 19.6203 39.02 19.2043 38.772C18.7883 38.516 18.4723 38.168 18.2563 37.728C18.0483 37.288 17.9443 36.792 17.9443 36.24C17.9443 35.696 18.0563 35.204 18.2803 34.764C18.5043 34.316 18.8243 33.964 19.2403 33.708C19.6563 33.452 20.1443 33.324 20.7043 33.324C21.1363 33.324 21.5243 33.424 21.8683 33.624C22.2123 33.824 22.4723 34.096 22.6483 34.44L22.6483 33.468L23.6803 33.468L23.6803 39L22.6483 39L22.6483 38.028C22.4723 38.364 22.2043 38.636 21.8443 38.844C21.4843 39.044 21.0963 39.144 20.6803 39.144ZM20.8243 38.208C21.4083 38.208 21.8643 38.02 22.1923 37.644C22.5283 37.26 22.6963 36.792 22.6963 36.24C22.6963 35.68 22.5283 35.212 22.1923 34.836C21.8643 34.452 21.4083 34.26 20.8243 34.26C20.2643 34.26 19.8163 34.448 19.4803 34.824C19.1443 35.192 18.9763 35.664 18.9763 36.24C18.9763 36.816 19.1443 37.288 19.4803 37.656C19.8163 38.024 20.2643 38.208 20.8243 38.208ZM25.4781 30.6L26.5221 30.6L26.5221 39L25.4781 39L25.4781 30.6ZM28.3258 30.6L29.3698 30.6L29.3698 39L28.3258 39L28.3258 30.6ZM37.2806 33.324C37.8006 33.324 38.2646 33.448 38.6726 33.696C39.0806 33.936 39.3966 34.28 39.6206 34.728C39.8446 35.168 39.9566 35.672 39.9566 36.24C39.9566 36.8 39.8406 37.3 39.6086 37.74C39.3766 38.18 39.0526 38.524 38.6366 38.772C38.2206 39.02 37.7486 39.144 37.2206 39.144C36.7966 39.144 36.4046 39.044 36.0446 38.844C35.6926 38.644 35.4286 38.372 35.2526 38.028L35.2526 41.556L34.2086 41.556L34.2086 33.468L35.2526 33.468L35.2526 34.44C35.4286 34.096 35.6966 33.824 36.0566 33.624C36.4246 33.424 36.8326 33.324 37.2806 33.324ZM37.0766 38.208C37.6126 38.208 38.0526 38.024 38.3966 37.656C38.7406 37.288 38.9126 36.816 38.9126 36.24C38.9126 35.864 38.8326 35.524 38.6726 35.22C38.5206 34.916 38.3046 34.68 38.0246 34.512C37.7446 34.344 37.4286 34.26 37.0766 34.26C36.5246 34.26 36.0726 34.444 35.7206 34.812C35.3766 35.18 35.2046 35.656 35.2046 36.24C35.2046 36.816 35.3766 37.288 35.7206 37.656C36.0726 38.024 36.5246 38.208 37.0766 38.208ZM41.2984 30.6L42.3424 30.6L42.3424 39L41.2984 39L41.2984 30.6ZM46.4381 39.144C45.8701 39.144 45.3781 39.02 44.9621 38.772C44.5461 38.516 44.2301 38.168 44.0141 37.728C43.8061 37.288 43.7021 36.792 43.7021 36.24C43.7021 35.696 43.8141 35.204 44.0381 34.764C44.2621 34.316 44.5821 33.964 44.9981 33.708C45.4141 33.452 45.9021 33.324 46.4621 33.324C46.8941 33.324 47.2821 33.424 47.6261 33.624C47.9701 33.824 48.2301 34.096 48.4061 34.44L48.4061 33.468L49.4381 33.468L49.4381 39L48.4061 39L48.4061 38.028C48.2301 38.364 47.9621 38.636 47.6021 38.844C47.2421 39.044 46.8541 39.144 46.4381 39.144ZM46.5821 38.208C47.1661 38.208 47.6221 38.02 47.9501 37.644C48.2861 37.26 48.4541 36.792 48.4541 36.24C48.4541 35.68 48.2861 35.212 47.9501 34.836C47.6221 34.452 47.1661 34.26 46.5821 34.26C46.0221 34.26 45.5741 34.448 45.2381 34.824C44.9021 35.192 44.7341 35.664 44.7341 36.24C44.7341 36.816 44.9021 37.288 45.2381 37.656C45.5741 38.024 46.0221 38.208 46.5821 38.208ZM51.2359 33.468L52.2799 33.468L52.2799 34.488C52.4319 34.128 52.6719 33.844 52.9999 33.636C53.3359 33.428 53.7399 33.324 54.2119 33.324C54.8919 33.324 55.4039 33.516 55.7479 33.9C56.0999 34.284 56.2759 34.848 56.2759 35.592L56.2759 39L55.2319 39L55.2319 36.048C55.2319 35.424 55.1199 34.964 54.8959 34.668C54.6799 34.372 54.3279 34.224 53.8399 34.224C53.3359 34.224 52.9479 34.388 52.6759 34.716C52.4119 35.044 52.2799 35.496 52.2799 36.072L52.2799 39L51.2359 39L51.2359 33.468ZM59.8811 39.144C59.4171 39.144 59.0091 39.064 58.6571 38.904C58.3131 38.736 58.0451 38.516 57.8531 38.244C57.6691 37.972 57.5771 37.672 57.5771 37.344L58.6091 37.344C58.6091 37.624 58.7291 37.856 58.9691 38.04C59.2091 38.216 59.5291 38.304 59.9291 38.304C60.2411 38.304 60.4891 38.232 60.6731 38.088C60.8571 37.944 60.9491 37.748 60.9491 37.5C60.9491 37.332 60.9051 37.184 60.8171 37.056C60.7291 36.92 60.5931 36.828 60.4091 36.78L58.9331 36.396C58.5331 36.284 58.2331 36.1 58.0331 35.844C57.8411 35.58 57.7451 35.268 57.7451 34.908C57.7451 34.604 57.8331 34.332 58.0091 34.092C58.1851 33.852 58.4291 33.664 58.7411 33.528C59.0531 33.392 59.4131 33.324 59.8211 33.324C60.4931 33.324 61.0131 33.48 61.3811 33.792C61.7571 34.096 61.9451 34.496 61.9451 34.992L60.9131 34.992C60.9131 34.728 60.8131 34.52 60.6131 34.368C60.4131 34.208 60.1331 34.128 59.7731 34.128C59.4851 34.128 59.2451 34.196 59.0531 34.332C58.8691 34.46 58.7771 34.636 58.7771 34.86C58.7771 35.236 58.9811 35.472 59.3891 35.568L60.7691 35.952C61.1611 36.056 61.4651 36.24 61.6811 36.504C61.8971 36.768 62.0051 37.068 62.0051 37.404C62.0051 37.932 61.8171 38.356 61.4411 38.676C61.0651 38.988 60.5451 39.144 59.8811 39.144Z" fill="#9D9D9D"/>
</svg>
